<?xml version="1.0" encoding="UTF-8"?>
<svg width="27px" height="27px" viewBox="6 0 27 27" version="1.1" xmlns="http://www.w3.org/2000/svg">
    <path d="M33,0 L33,26.2785 L28.3572608,26.2785 L28.3572608,24.5504 L31.2170826,24.5504 L31.2170826,1.72806 L7.78302828,1.72806 L7.78302828,24.5504 L10.5062218,24.5504 L10.5062218,26.2785 L6,26.2785 L6,0 L33,0 Z M19.1304,19.1453 C19.2039,19.0762 19.3201,19.0746 19.3959,19.1421 L19.3959,19.1421 L21.2683,20.8086 C21.7894,21.272 22.3763,21.8327 22.7818,22.4793 C23.2658,23.2507 23.3869,23.9973 23.1413,24.6979 C22.8841,25.4315 22.1822,26.0057 21.3519,26.1613 L21.3519,26.1613 L17.6341,26.2542 C17.4853,26.252 17.3365,26.2358 17.191,26.2056 C16.1389,25.9879 15.3794,25.0739 15.3434,23.9821 C15.3025,22.737 16.2639,21.8349 16.9658,21.1764 L16.9658,21.1764 Z M13.2768,14.2415 C14.5518,14.2021 15.4756,15.1404 16.1499,15.8259 L16.1499,15.8259 L18.2298,17.9396 C18.3006,18.0115 18.3023,18.1249 18.2331,18.1989 L18.2331,18.1989 L16.5261,20.0275 C16.0515,20.5363 15.4767,21.11 14.8157,21.5054 C14.278,21.8274 13.752,21.9851 13.2447,21.977 C13.0058,21.9732 12.7696,21.9327 12.5439,21.8565 C11.7927,21.6053 11.2047,20.9198 11.0453,20.109 L11.0453,20.109 L11,16.0457 C11.2229,15.0183 12.1589,14.2766 13.2768,14.2415 Z M23.7786,14.699 C24.5685,14.2264 25.333,14.1081 26.0504,14.3479 C26.8016,14.5991 27.3896,15.2846 27.5489,16.0954 L27.5489,16.0954 L27.5943,20.1587 C27.3714,21.1861 26.4354,21.9278 25.3175,21.9629 C25.2782,21.9646 25.2389,21.9646 25.2002,21.964 C23.9854,21.9451 23.0982,21.043 22.4443,20.3786 L22.4443,20.3786 L20.3644,18.2648 C20.2936,18.193 20.292,18.0795 20.3611,18.0055 L20.3611,18.0055 L22.0676,16.177 C22.5422,15.6687 23.117,15.095 23.7786,14.699 Z M21.4027,10 C22.4548,10.2177 23.2143,11.1317 23.2503,12.2234 C23.2912,13.468 22.3298,14.3706 21.6279,15.0291 L21.6279,15.0291 L19.4633,17.0602 C19.3898,17.1294 19.2736,17.131 19.1978,17.0634 L19.1978,17.0634 L17.3254,15.397 C16.8043,14.933 16.2174,14.3722 15.8119,13.7262 C15.3279,12.9548 15.2067,12.2082 15.4523,11.5076 C15.7096,10.774 16.4115,10.1998 17.2418,10.0443 L17.2418,10.0443 Z" fill="#FFFFFF" fill-rule="nonzero"></path>
</svg>