<?xml version="1.0" encoding="UTF-8"?>
<svg width="39px" height="42px" viewBox="0 0 39 42" version="1.1" xmlns="http://www.w3.org/2000/svg" xmlns:xlink="http://www.w3.org/1999/xlink">
    <title>Artboard</title>
    <g id="Artboard" stroke="none" stroke-width="1" fill="none" fill-rule="evenodd">
        <path d="M7.20958979,32 C7.68558064,32 8.11245638,32.0985787 8.49162766,32.2949064 C8.87075745,32.491234 9.16865106,32.7633213 9.38530851,33.1107532 C9.60146809,33.4581021 9.7098383,33.8490149 9.7098383,34.2842383 C9.7098383,34.7194617 9.60146809,35.1102915 9.38530851,35.4577234 C9.16815319,35.8050723 8.87075745,36.0771596 8.49162766,36.2734872 C8.11245638,36.4703128 7.68558064,36.5684766 7.20958979,36.5684766 C6.73452,36.5684766 6.30672319,36.4703128 5.92758511,36.2734872 C5.5489034,36.0771596 5.2505534,35.8050723 5.03481702,35.4577234 C4.81816787,35.1107894 4.71029553,34.7194617 4.71029553,34.2842383 C4.71029553,33.8490149 4.81816787,33.4581021 5.03481702,33.1107532 C5.25100979,32.7638191 5.5489034,32.4917319 5.92758511,32.2949064 C6.30672319,32.0985787 6.73452,32 7.20958979,32 Z M17.8255723,32 C18.3011234,32 18.7284638,32.0985787 19.1075936,32.2949064 C19.4867234,32.491234 19.784617,32.7633213 20.0008596,33.1107532 C20.2170191,33.4581021 20.3253064,33.8490149 20.3253064,34.2842383 C20.3253064,34.7194617 20.2170191,35.1102915 20.0008596,35.4577234 C19.7842021,35.8050723 19.4867234,36.0771596 19.1075936,36.2734872 C18.7284638,36.4703128 18.3011234,36.5684766 17.8255723,36.5684766 C17.3500213,36.5684766 16.9227638,36.4703128 16.5435511,36.2734872 C16.1644213,36.0771596 15.8665277,35.8050723 15.6503681,35.4577234 C15.4342085,35.1107894 15.3258383,34.7194617 15.3258383,34.2842383 C15.3258383,33.8490149 15.4342085,33.4581021 15.6503681,33.1107532 C15.8670255,32.7638191 16.1644213,32.4917319 16.5435511,32.2949064 C16.9227638,32.0981638 17.3500213,32 17.8255723,32 Z M27.1113064,32 C27.5867745,32 28.0141149,32.0985787 28.3932447,32.2949064 C28.7724574,32.491234 29.0703511,32.7633213 29.2865106,33.1107532 C29.5026702,33.4581021 29.6110404,33.8490149 29.6110404,34.2842383 C29.6110404,34.7194617 29.5026702,35.1102915 29.2865106,35.4577234 C29.0698532,35.8050723 28.7724574,36.0771596 28.3932447,36.2734872 C28.0141149,36.4703128 27.5867745,36.5684766 27.1113064,36.5684766 C26.6357553,36.5684766 26.2088298,36.4703128 25.8292851,36.2734872 C25.4501553,36.0771596 25.1522617,35.8050723 24.9360191,35.4577234 C24.7198596,35.1107894 24.6114894,34.7194617 24.6114894,34.2842383 C24.6114894,33.8490149 24.7198596,33.4581021 24.9360191,33.1107532 C25.1526766,32.7638191 25.4501553,32.4917319 25.8292851,32.2949064 C26.2084149,32.0981638 26.6357553,32 27.1113064,32 Z M36.500266,32 C36.975817,32 37.4031574,32.0985787 37.7822872,32.2949064 C38.161417,32.491234 38.4593106,32.7633213 38.6754702,33.1107532 C38.8917128,33.4581021 39,33.8490149 39,34.2842383 C39,34.7194617 38.8917128,35.1102915 38.6754702,35.4577234 C38.4588128,35.8050723 38.161417,36.0771596 37.7822872,36.2734872 C37.4031574,36.4703128 36.975817,36.5684766 36.500266,36.5684766 C36.0247149,36.5684766 35.5973745,36.4703128 35.2182447,36.2734872 C34.8391149,36.0771596 34.5412213,35.8050723 34.3250617,35.4577234 C34.1088191,35.1107894 34.0005319,34.7194617 34.0005319,34.2842383 C34.0005319,33.8490149 34.1088191,33.4581021 34.3250617,33.1107532 C34.5417191,32.7638191 34.8391149,32.4917319 35.2182447,32.2949064 C35.5973745,32.0981638 36.0247149,32 36.500266,32 Z M2.30054362,32.0878745 C2.8743,32.0878745 3.31173894,32.1914319 3.61101,32.3984638 C3.91073745,32.6055787 4.06083766,32.8848021 4.06083766,33.236217 C4.06083766,33.4455723 4.0080466,33.6325234 3.90293745,33.7979 C3.7978283,33.9632766 3.64910553,34.0937191 3.45632106,34.1901404 C3.71428532,34.2779319 3.91533447,34.4150957 4.06129404,34.601134 C4.20634085,34.7871723 4.2802417,35.0122106 4.2802417,35.2757511 C4.2802417,35.6607723 4.12142872,35.9575043 3.80425085,36.1668596 C3.48753766,36.3761319 3.02898894,36.4806021 2.42906936,36.4806021 L0,36.4806021 L0,32.0878745 L2.30054362,32.0878745 Z M11.4251745,32.0878745 L13.4108553,34.4285383 L13.4108553,32.0878745 L14.6575277,32.0878745 L14.6575277,36.4806021 L13.6105021,36.4806021 L11.6249043,34.1399383 L11.6249043,36.4806021 L10.3782319,36.4806021 L10.3782319,32.0878745 L11.4251745,32.0878745 Z M22.2654319,32.0878745 L22.2654319,35.4953957 L24.4117596,35.4953957 L24.4117596,36.4806021 L20.993534,36.4806021 L20.993534,32.0878745 L22.2654319,32.0878745 Z M33.8200532,32.0878745 L33.8200532,33.0730809 L32.4448468,33.0730809 L32.4448468,36.4806021 L31.1729489,36.4806021 L31.1729489,33.0730809 L29.7909383,33.0730809 L29.7909383,32.0878745 L33.8200532,32.0878745 Z M2.32578574,34.6921617 L1.25951745,34.6921617 L1.25951745,35.5832702 L2.32578574,35.5832702 C2.77148106,35.5832702 2.99410468,35.4349043 2.99410468,35.1376745 C2.99410468,34.8405277 2.77148106,34.6921617 2.32578574,34.6921617 Z M7.20958979,33.0291851 C6.98284213,33.0291851 6.77766894,33.0816277 6.59268447,33.1860149 C6.40908574,33.2904851 6.26266149,33.4379383 6.15617489,33.6284574 C6.04876723,33.8189766 5.9950634,34.0372106 5.9950634,34.2842383 C5.9950634,34.531183 6.04830255,34.7495 6.15617489,34.9400191 C6.26266149,35.1304553 6.40908574,35.2779915 6.59268447,35.3823787 C6.77720426,35.4868489 6.98284213,35.5392915 7.20958979,35.5392915 C7.43725851,35.5392915 7.64244,35.4868489 7.82649511,35.3823787 C8.01102319,35.2779915 8.15652638,35.1304553 8.26393404,34.9400191 C8.37039574,34.7495 8.42458085,34.531183 8.42458085,34.2842383 C8.42458085,34.0372106 8.37089362,33.8189766 8.26393404,33.6284574 C8.15652638,33.4379383 8.01102319,33.2904851 7.82649511,33.1860149 C7.64289638,33.0816277 7.43725851,33.0291851 7.20958979,33.0291851 Z M17.8255723,33.0291851 C17.5983766,33.0291851 17.3931702,33.0816277 17.2087085,33.1860149 C17.0246617,33.2904851 16.8787021,33.4379383 16.7717426,33.6284574 C16.664783,33.8189766 16.6110957,34.0372106 16.6110957,34.2842383 C16.6110957,34.531183 16.6642851,34.7495 16.7717426,34.9400191 C16.879117,35.1304553 17.0246617,35.2779915 17.2087085,35.3823787 C17.3927553,35.4868489 17.5983766,35.5392915 17.8255723,35.5392915 C18.0527681,35.5392915 18.2579745,35.4868489 18.4425191,35.3823787 C18.626566,35.2779915 18.7725255,35.1304553 18.8794851,34.9400191 C18.9864447,34.7495 19.0405468,34.531183 19.0405468,34.2842383 C19.0405468,34.0372106 18.9868596,33.8189766 18.8794851,33.6284574 C18.7720277,33.4379383 18.626566,33.2904851 18.4425191,33.1860149 C18.2584723,33.0816277 18.0527681,33.0291851 17.8255723,33.0291851 Z M27.1113064,33.0291851 C26.8840277,33.0291851 26.6789043,33.0816277 26.4943596,33.1860149 C26.3103128,33.2904851 26.1643532,33.4379383 26.0573936,33.6284574 C25.950434,33.8189766 25.8967468,34.0372106 25.8967468,34.2842383 C25.8967468,34.531183 25.9500191,34.7495 26.0573936,34.9400191 C26.1647681,35.1304553 26.3103128,35.2779915 26.4943596,35.3823787 C26.6784064,35.4868489 26.8840277,35.5392915 27.1113064,35.5392915 C27.3385021,35.5392915 27.5441234,35.4868489 27.7281702,35.3823787 C27.912217,35.2779915 28.0581766,35.1304553 28.1651362,34.9400191 C28.2720957,34.7495 28.3262809,34.531183 28.3262809,34.2842383 C28.3262809,34.0372106 28.2725936,33.8189766 28.1651362,33.6284574 C28.0577617,33.4379383 27.912217,33.2904851 27.7281702,33.1860149 C27.5441234,33.0816277 27.3385021,33.0291851 27.1113064,33.0291851 Z M36.4997681,33.0291851 C36.2725723,33.0291851 36.0674489,33.0816277 35.8829043,33.1860149 C35.6988574,33.2904851 35.5528979,33.4379383 35.4459383,33.6284574 C35.3389787,33.8189766 35.2852915,34.0372106 35.2852915,34.2842383 C35.2852915,34.531183 35.3384809,34.7495 35.4459383,34.9400191 C35.5528979,35.1304553 35.6988574,35.2779915 35.8829043,35.3823787 C36.0669511,35.4868489 36.2725723,35.5392915 36.4997681,35.5392915 C36.7270468,35.5392915 36.9326681,35.4868489 37.1167149,35.3823787 C37.3007617,35.2779915 37.4467213,35.1304553 37.5536809,34.9400191 C37.6606404,34.7495 37.7148255,34.531183 37.7148255,34.2842383 C37.7148255,34.0372106 37.6610553,33.8189766 37.5536809,33.6284574 C37.4467213,33.4379383 37.3007617,33.2904851 37.1167149,33.1860149 C36.9326681,33.0816277 36.7270468,33.0291851 36.4997681,33.0291851 Z M2.13300957,32.9852064 L1.25951745,32.9852064 L1.25951745,33.8324191 L2.13300957,33.8324191 C2.56126277,33.8324191 2.77515702,33.6903596 2.77515702,33.4056596 C2.77515702,33.1255234 2.56079809,32.9852064 2.13300957,32.9852064 Z M33,0 L33,26.2785 L28.3572608,26.2785 L28.3572608,24.5504 L31.2170826,24.5504 L31.2170826,1.72806 L7.78302828,1.72806 L7.78302828,24.5504 L10.5062218,24.5504 L10.5062218,26.2785 L6,26.2785 L6,0 L33,0 Z M19.1304,19.1453 C19.2039,19.0762 19.3201,19.0746 19.3959,19.1421 L19.3959,19.1421 L21.2683,20.8086 C21.7894,21.272 22.3763,21.8327 22.7818,22.4793 C23.2658,23.2507 23.3869,23.9973 23.1413,24.6979 C22.8841,25.4315 22.1822,26.0057 21.3519,26.1613 L21.3519,26.1613 L17.6341,26.2542 C17.4853,26.252 17.3365,26.2358 17.191,26.2056 C16.1389,25.9879 15.3794,25.0739 15.3434,23.9821 C15.3025,22.737 16.2639,21.8349 16.9658,21.1764 L16.9658,21.1764 Z M13.2768,14.2415 C14.5518,14.2021 15.4756,15.1404 16.1499,15.8259 L16.1499,15.8259 L18.2298,17.9396 C18.3006,18.0115 18.3023,18.1249 18.2331,18.1989 L18.2331,18.1989 L16.5261,20.0275 C16.0515,20.5363 15.4767,21.11 14.8157,21.5054 C14.278,21.8274 13.752,21.9851 13.2447,21.977 C13.0058,21.9732 12.7696,21.9327 12.5439,21.8565 C11.7927,21.6053 11.2047,20.9198 11.0453,20.109 L11.0453,20.109 L11,16.0457 C11.2229,15.0183 12.1589,14.2766 13.2768,14.2415 Z M23.7786,14.699 C24.5685,14.2264 25.333,14.1081 26.0504,14.3479 C26.8016,14.5991 27.3896,15.2846 27.5489,16.0954 L27.5489,16.0954 L27.5943,20.1587 C27.3714,21.1861 26.4354,21.9278 25.3175,21.9629 C25.2782,21.9646 25.2389,21.9646 25.2002,21.964 C23.9854,21.9451 23.0982,21.043 22.4443,20.3786 L22.4443,20.3786 L20.3644,18.2648 C20.2936,18.193 20.292,18.0795 20.3611,18.0055 L20.3611,18.0055 L22.0676,16.177 C22.5422,15.6687 23.117,15.095 23.7786,14.699 Z M21.4027,10 C22.4548,10.2177 23.2143,11.1317 23.2503,12.2234 C23.2912,13.468 22.3298,14.3706 21.6279,15.0291 L21.6279,15.0291 L19.4633,17.0602 C19.3898,17.1294 19.2736,17.131 19.1978,17.0634 L19.1978,17.0634 L17.3254,15.397 C16.8043,14.933 16.2174,14.3722 15.8119,13.7262 C15.3279,12.9548 15.2067,12.2082 15.4523,11.5076 C15.7096,10.774 16.4115,10.1998 17.2418,10.0443 L17.2418,10.0443 Z" id="Combined-Shape" fill="#EEC851" fill-rule="nonzero"></path>
    </g>
</svg>