<?xml version="1.0" encoding="UTF-8"?><svg id="Capa_2" xmlns="http://www.w3.org/2000/svg" viewBox="0 0 510.21 487.07"><defs><style>.cls-1{fill:#e40257;}.cls-2{fill:#ed7b9d;}.cls-3{fill:#54b375;}.cls-4{fill:#5cc5f1;}.cls-5{fill:#6f388d;}</style></defs><g id="Capa_1-2"><path class="cls-1" d="M140.13,403.97c2.54,12.6-3.99,24.49-13.79,30.07-10.96,6.25-24,5.28-33.45-3.08-11.59-10.61-14.07-29.07-2.84-40.8,12.5-13.07,24.99-25.04,39.11-38.35,4.71,18.24,7.41,34.5,10.97,52.16Z"/><path class="cls-1" d="M96.94,264.61c-13.58,13.16-26.52,24.01-39.8,35.62-10.49,9.17-25.93,8.71-36.41.45-10.59-8.34-14.05-22.7-7.92-35.18,5.76-11.73,18.58-18.87,32.27-15.78l51.86,14.89Z"/><path class="cls-1" d="M377.81,311.22c-15.08-8.67-29.84-15.33-44.92-25.11l47-25.71c11.9-6.51,26.59-2.55,34.78,7.14,8.79,10.39,9.41,25.2.87,36.09-9.12,11.62-24.46,15.22-37.73,7.59Z"/><path class="cls-1" d="M166.53,153.28l-40.22-33.8c-10.79-9.07-12.77-24.48-6.34-36.02,6.88-12.33,20.95-17.61,34.12-13.22,13.33,4.44,21.91,17.14,19.75,31.8l-7.31,51.24Z"/><path class="cls-1" d="M265.41,439.63c-16.96,1.7-28.78-9.1-32.55-24.63l-11.54-47.59,49.16,16.04c13.13,4.28,21.31,16.48,20.26,29.95-1.03,13.28-10.85,24.79-25.32,26.24Z"/><path class="cls-1" d="M369.41,184.18c-18.39-.59-35.12-.87-53.74-2.64l30.52-43.31c7.42-10.53,20.95-14.22,32.93-10.03s19.81,15.07,19.08,28.14c-.85,15.2-12.53,28.36-28.78,27.84Z"/><path class="cls-5" d="M205.1,450.6c6.09,10.65,3.32,23.54-5.42,30.83-9.36,7.81-22.61,7.34-31.34-.44-9.37-8.35-10.53-20.96-4.32-32.08l20.08-35.95c8.14,12.56,13.92,25.22,21.01,37.63Z"/><path class="cls-3" d="M436.65,200.49c12.28-10.22,23.87-18.16,35.71-26.83,9.49-6.95,22.59-5.09,30.55,2.6s9.61,20.37,3.55,30.01c-6.12,9.74-17.77,14.1-29.05,10.02l-40.76-15.79Z"/><path class="cls-5" d="M212.48,210.43c-1.79-15.62-1.45-30.24-1.69-45.43-.18-11.62,9.12-20.69,18.81-22.7,11.92-2.47,22.51,3.3,27,13.43,4.6,10.37,2.38,22.9-7.28,29.51l-36.85,25.19Z"/><path class="cls-4" d="M132.22,313.53c-5.48,9.85-17.06,14.16-27.5,11.23-10.74-3.01-18.16-12.61-17.53-24.21.57-10.35,7.77-21.27,19.45-22.64,15.38-1.81,30.32-2.24,46.94-2.97-6.77,13.96-14.21,25.72-21.36,38.59Z"/><path class="cls-3" d="M45.7,379.35c-6.55,10.94-18.47,15.46-30.02,11.36-10.77-3.83-17.36-14.83-15.3-26.65s11.72-20.12,24.46-20.3l42.55-.63-21.69,36.22Z"/><path class="cls-2" d="M175.77,247.15c-15.77,1.06-30.04.76-44.94.75-11.65-.01-20.62-9.06-22.68-18.91-2.54-12.11,3.71-23,14.16-27.29s23.24-1.19,29.75,8.86l23.71,36.58Z"/><path class="cls-2" d="M189.73,346.34c6.07,10.49,2.82,23.15-5.63,30.21s-21.15,7.66-30.41.32c-8.68-6.88-12.2-19.18-6.7-29.95l19.87-38.88c8.56,13.07,15.33,25.26,22.87,38.3Z"/><path class="cls-2" d="M266.61,281.43l-44.15,2.35,21.62-38.75c5.72-10.26,18.02-14.16,28.7-10.58s17.51,14,15.98,25.84c-1.41,10.9-10.03,20.49-22.15,21.14Z"/><path class="cls-2" d="M75.71,209.83c-16.14.64-30.05-.27-44.89-.78-11.52-.4-20.23-9.44-22.08-19.59-2.1-11.56,3.88-22.19,13.94-26.39,10.71-4.47,23.32-1.77,29.68,8.26,7.91,12.49,15.44,24.32,23.35,38.5Z"/><path class="cls-2" d="M356.4,355.19c12.55.64,20.88,11.19,21.85,21.85,1.09,12.01-6.61,21.97-17.07,25.04-12.47,3.66-23.1-2.26-29.52-13.02l-20.75-34.82c15.42-.44,29.87.15,45.48.95Z"/><path class="cls-4" d="M291.4,65.56c.16-15.46,2.39-29.67,3.77-44.48,1.09-11.73,11.17-19.95,21.36-20.95,12.13-1.2,22.2,6.07,25.38,16.51,3.6,11.81-1.08,23.67-12.01,29.26l-38.49,19.67Z"/><path class="cls-2" d="M261.57,353.36c-9.44,7.69-24.68,8.23-32.78-1.48-10.18-12.21-17.53-26.22-27.2-39.95,14.34-1.91,26.81-.27,40.23-1.14,10.92-.7,21.03,3.74,25.65,13.33s3.34,21.73-5.9,29.25Z"/></g></svg>