<?xml version="1.0" encoding="UTF-8"?>
<svg width="27px" height="27px" viewBox="6 0 27 27" version="1.1" xmlns="http://www.w3.org/2000/svg">
    <path d="M33,0 L33,25.4919 L28.357222,25.4919 L28.357222,23.8155 L31.2169639,23.8155 L31.2169639,1.6763 L7.78292883,1.6763 L7.78292883,23.8155 L10.5061658,23.8155 L10.5061658,25.4919 L6,25.4919 L6,0 L33,0 Z M26.8764,21.36115 C26.4252,22.34465 25.7786,23.21925 24.9865,23.93355 L24.9865,23.93355 L14.6072,23.93355 C13.8145,23.21975 13.1685,22.34525 12.7173,21.36115 L12.7173,21.36115 Z M27.3712,16.21685 C27.5152,16.81265 27.5931,17.43465 27.5931,18.07445 C27.5931,18.71425 27.5152,19.33625 27.3712,19.93205 L27.3712,19.93205 L12.222,19.93205 C12.078,19.33625 12,18.71425 12,18.07445 C12,17.43415 12.078,16.81265 12.222,16.21685 L12.222,16.21685 Z M24.9865,12.21495 C25.7791,12.92915 26.4252,13.80375 26.8764,14.78735 L26.8764,14.78735 L12.7173,14.78735 C13.1685,13.80325 13.8145,12.92865 14.6072,12.21495 L14.6072,12.21495 Z M19.7965,10.21415 C20.8267,10.21415 21.8096,10.41805 22.7104,10.78585 L22.7104,10.78585 L16.8827,10.78585 C17.7835,10.41855 18.7664,10.21415 19.7965,10.21415 Z" fill="#E53D4A" fill-rule="nonzero"></path>
</svg>