<?xml version="1.0" encoding="UTF-8"?>
<svg width="39px" height="42px" viewBox="0 0 39 42" version="1.1" xmlns="http://www.w3.org/2000/svg" xmlns:xlink="http://www.w3.org/1999/xlink">
    <title>Artboard</title>
    <g id="Artboard" stroke="none" stroke-width="1" fill="none" fill-rule="evenodd">
        <path d="M2.324985,37.8 L2.324985,41.04948 L4.3115475,41.04948 L4.3115475,41.376495 L1.95,41.376495 L1.95,37.8 L2.324985,37.8 Z M6.3686025,37.8 L7.99032,41.376495 L7.595055,41.376495 L7.16937,40.4210925 L5.193435,40.4210925 L4.76775,41.376495 L4.37697,41.376495 L5.999175,37.8 L6.3686025,37.8 Z M11.2336575,37.8 C11.6866425,37.8 12.041445,37.9089075 12.2983575,38.127015 C12.5547825,38.34522 12.6834825,38.644545 12.6834825,39.0262575 C12.6834825,39.4078725 12.5547825,39.7068075 12.2983575,39.9228675 C12.041445,40.139025 11.6866425,40.2473475 11.2336575,40.2473475 L10.2808875,40.2473475 L10.2808875,41.376495 L9.9059025,41.376495 L9.9059025,37.8 L11.2336575,37.8 Z M14.82156,37.8 C15.2746425,37.8 15.6293475,37.9089075 15.88626,38.127015 C16.142685,38.34522 16.2714825,38.644545 16.2714825,39.0262575 C16.2714825,39.3056925 16.20099,39.5412525 16.061175,39.733815 C15.9212625,39.926475 15.7206075,40.064925 15.460575,40.14975 L16.3266675,41.37591 L15.91668,41.37591 L15.91668,41.376495 L15.1053825,40.2268725 C15.0141225,40.23711 14.91984,40.24218 14.82156,40.24218 L13.86879,40.24218 L13.86879,41.376495 L13.493805,41.376495 L13.493805,37.8 L14.82156,37.8 Z M17.533425,37.8 L17.533425,41.376495 L17.15844,41.376495 L17.15844,37.8 L17.533425,37.8 Z M28.34247,37.8 L28.34247,41.376495 L27.9673875,41.376495 L27.9673875,37.8 L28.34247,37.8 Z M29.3002125,37.8 L30.6583875,40.9064475 L32.0267025,37.8 L32.4067575,37.8 L30.83574,41.376495 L30.465825,41.376495 L28.8948075,37.8 L29.3002125,37.8 Z M18.9969975,37.8 L20.5380825,40.4517075 L22.06347,37.8 L22.3726425,37.8 L22.3726425,41.376495 L22.013355,41.376495 L22.013355,38.5153575 L20.61969,40.921755 L20.44185,40.921755 L19.048185,38.530665 L19.048185,41.376495 L18.68841,41.376495 L18.68841,37.8 L18.9969975,37.8 Z M23.9030025,37.8 L23.9030025,41.376495 L23.528505,41.376495 L23.528505,37.8 L23.9030025,37.8 Z M27.3695175,37.8 L27.3695175,38.127015 L26.122785,38.127015 L26.122785,41.376495 L25.7478,41.376495 L25.7478,38.127015 L24.501165,38.127015 L24.501165,37.8 L27.3695175,37.8 Z M34.23576,37.8 L35.85738,41.376495 L35.462115,41.376495 L35.0369175,40.4210925 L33.060495,40.4210925 L32.63481,41.376495 L32.2441275,41.376495 L33.8657475,37.8 L34.23576,37.8 Z M34.048755,38.1934125 L33.197385,40.114455 L34.900125,40.114455 L34.048755,38.1934125 Z M6.18111,38.1934125 L5.32974,40.114455 L7.03248,40.114455 L6.18111,38.1934125 Z M14.8119075,38.1265275 L13.869375,38.1265275 L13.869375,39.9198517 L14.8119075,39.9198517 C15.162615,39.9203325 15.4322025,39.8421375 15.617745,39.6853575 C15.80319,39.52848 15.8964,39.3088125 15.8964,39.02577 C15.8964,38.736585 15.80319,38.514285 15.617745,38.3589675 C15.4322025,38.20365 15.1631025,38.1265275 14.8119075,38.1265275 Z M11.224005,38.1265275 L10.281375,38.1265275 L10.281375,39.9147817 L11.224005,39.9147817 C11.5747125,39.9152625 11.8438125,39.837555 12.029745,39.6822375 C12.2152875,39.5274075 12.3084975,39.3088125 12.3084975,39.02577 C12.3084975,38.736585 12.2152875,38.514285 12.029745,38.3589675 C11.8443,38.20365 11.5752,38.1265275 11.224005,38.1265275 Z M13.670865,30 C14.134575,30 14.55012,30.0786825 14.9195475,30.2360475 C15.288975,30.3934125 15.5956125,30.61971 15.8418975,30.915525 L14.94792,31.731015 C14.6114475,31.3590525 14.2095525,31.1730225 13.74126,31.1730225 C13.315575,31.1730225 12.9724725,31.302795 12.713025,31.562925 C12.4526025,31.8229575 12.3223425,32.1698625 12.3223425,32.60364 C12.3223425,32.88054 12.381135,33.126825 12.5001825,33.3439575 C12.6177675,33.56109 12.784005,33.730155 12.99636,33.851835 C13.208715,33.9734175 13.4529525,34.03416 13.7271225,34.03416 C13.9962225,34.03416 14.249625,33.97956 14.4862575,33.8696775 L14.4862575,32.4962925 L15.728895,32.4962925 L15.728895,34.5707025 C15.4450725,34.77555 15.1192275,34.932915 14.7498,35.0427 C14.3803725,35.152095 14.01192,35.20728 13.64298,35.20728 C13.122525,35.20728 12.6542325,35.0964225 12.2382,34.87461 C11.8221675,34.652895 11.49525,34.3443075 11.2586175,33.94836 C11.0218875,33.5529 10.9044,33.1043025 10.9044,32.60364 C10.9044,32.10288 11.0218875,31.6548675 11.2586175,31.25892 C11.49525,30.86346 11.82363,30.554385 12.2453175,30.3325725 C12.6659325,30.1108575 13.141245,30 13.670865,30 Z M19.1272575,30 C19.6521975,30 20.124585,30.1124175 20.542665,30.33618 C20.9612325,30.5599425 21.2901,30.87009 21.5288775,31.2660375 C21.7675575,31.661985 21.8870925,32.10756 21.8870925,32.60364 C21.8870925,33.09972 21.7675575,33.5451975 21.5288775,33.9412425 C21.2896125,34.33719 20.9612325,34.6473375 20.542665,34.8711 C20.124585,35.09535 19.6521975,35.20728 19.1272575,35.20728 C18.60222,35.20728 18.1304175,35.09535 17.7117525,34.8711 C17.2936725,34.6473375 16.9643175,34.33719 16.7256375,33.9412425 C16.4869575,33.5457825 16.367325,33.09972 16.367325,32.60364 C16.367325,32.10756 16.4869575,31.661985 16.7256375,31.2660375 C16.964805,30.8705775 17.2936725,30.56043 17.7117525,30.33618 C18.1304175,30.1124175 18.60222,30 19.1272575,30 Z M36.2400675,30 C36.765105,30 37.2369075,30.1124175 37.655475,30.33618 C38.0740425,30.5599425 38.4030075,30.87009 38.6416875,31.2660375 C38.8803675,31.661985 39,32.10756 39,32.60364 C39,33.09972 38.8803675,33.5451975 38.6416875,33.9412425 C38.40252,34.33719 38.0740425,34.6473375 37.655475,34.8711 C37.2369075,35.09535 36.765105,35.20728 36.2400675,35.20728 C35.71503,35.20728 35.2432275,35.09535 34.82466,34.8711 C34.405995,34.6473375 34.0771275,34.33719 33.8384475,33.9412425 C33.5997675,33.5457825 33.480135,33.09972 33.480135,32.60364 C33.480135,32.10756 33.5997675,31.661985 33.8384475,31.2660375 C34.077615,30.8705775 34.405995,30.56043 34.82466,30.33618 C35.2432275,30.11193 35.71503,30 36.2400675,30 Z M3.895125,30.1001325 L3.895125,31.19457 L1.3906425,31.19457 L1.3906425,32.03853 L3.5970675,32.03853 L3.5970675,33.097185 L1.3906425,33.097185 L1.3906425,34.01271 L3.98736,34.01271 L3.98736,35.1071475 L0,35.1071475 L0,30.1001325 L3.895125,30.1001325 Z M6.1720425,30.1001325 L6.1720425,33.9841425 L8.5416825,33.9841425 L8.5416825,35.1071475 L4.76775,35.1071475 L4.76775,30.1001325 L6.1720425,30.1001325 Z M24.8953575,30.1001325 C25.34493,30.1001325 25.735125,30.1752075 26.0665275,30.325455 C26.3980275,30.4757025 26.6528925,30.6903 26.83278,30.9692475 C27.0126675,31.248195 27.1029525,31.576185 27.1029525,31.95273 C27.1029525,32.3149425 27.01881,32.6312325 26.850525,32.9005275 C26.68224,33.169725 26.442585,33.380715 26.13039,33.5334975 L27.20172,35.1071475 L25.6971,35.1071475 L24.79659,33.7766625 L24.0303375,33.7766625 L24.0303375,35.1071475 L22.6255575,35.1071475 L22.6255575,30.1001325 L24.8953575,30.1001325 Z M30.2241225,30.1001325 C30.76788,30.1001325 31.25031,30.2028 31.670925,30.407745 C32.0920275,30.61308 32.4184575,30.903825 32.6505075,31.28037 C32.8821675,31.6574025 32.9981925,32.0982975 32.9981925,32.60364 C32.9981925,33.1089825 32.8821675,33.550365 32.6505075,33.92691 C32.4184575,34.303455 32.0920275,34.5946875 31.670925,34.799535 C31.25031,35.00448 30.76788,35.1071475 30.2241225,35.1071475 L27.8757375,35.1071475 L27.8757375,30.1001325 L30.2241225,30.1001325 Z M19.1272575,31.1730225 C18.87639,31.1730225 18.6498,31.23279 18.4461225,31.3518375 C18.2429325,31.470885 18.081765,31.638975 17.9636925,31.8561075 C17.84562,32.0733375 17.7862425,32.3221575 17.7862425,32.60364 C17.7862425,32.8851225 17.845035,33.1339425 17.9636925,33.351075 C18.0822525,33.5682075 18.2429325,33.7362975 18.4461225,33.855345 C18.6493125,33.9743925 18.87639,34.03416 19.1272575,34.03416 C19.3780275,34.03416 19.605105,33.9743925 19.80888,33.855345 C20.0115825,33.7362975 20.1726525,33.5682075 20.2908225,33.351075 C20.408895,33.1339425 20.468175,32.8851225 20.468175,32.60364 C20.468175,32.3221575 20.4093825,32.0733375 20.2908225,31.8561075 C20.1726525,31.638975 20.0115825,31.470885 19.80888,31.3518375 C19.605105,31.23279 19.3780275,31.1730225 19.1272575,31.1730225 Z M36.23958,31.1730225 C35.9887125,31.1730225 35.76222,31.23279 35.558445,31.3518375 C35.355255,31.470885 35.1940875,31.638975 35.076015,31.8561075 C34.9579425,32.0733375 34.8986625,32.3221575 34.8986625,32.60364 C34.8986625,32.8851225 34.957455,33.1339425 35.076015,33.351075 C35.194575,33.5682075 35.355255,33.7362975 35.558445,33.855345 C35.761635,33.9743925 35.9887125,34.03416 36.23958,34.03416 C36.4904475,34.03416 36.7174275,33.9743925 36.9206175,33.855345 C37.123905,33.7362975 37.2850725,33.5682075 37.403145,33.351075 C37.5212175,33.1339425 37.580985,32.8851225 37.580985,32.60364 C37.580985,32.3221575 37.521705,32.0733375 37.403145,31.8561075 C37.2844875,31.638975 37.123905,31.470885 36.9206175,31.3518375 C36.7174275,31.23279 36.4904475,31.1730225 36.23958,31.1730225 Z M30.1667925,31.230255 L29.2799325,31.230255 L29.2799325,33.977025 L30.1667925,33.977025 C30.5924775,33.977025 30.934605,33.855345 31.192005,33.61218 C31.4495025,33.369015 31.57869,33.032835 31.57869,32.60364 C31.57869,32.174445 31.4495025,31.838265 31.192005,31.5951 C30.9341175,31.351935 30.59199,31.230255 30.1667925,31.230255 Z M24.81024,31.21602 L24.0303375,31.21602 L24.0303375,32.6823225 L24.81024,32.6823225 C25.0991325,32.6823225 25.3165575,32.6189475 25.46349,32.4927825 C25.609935,32.3666175 25.68345,32.1862425 25.68345,31.95273 C25.68345,31.7192175 25.609935,31.5378675 25.46349,31.40907 C25.3165575,31.28037 25.0991325,31.21602 24.81024,31.21602 Z M22.7104,25.36295 C21.8096,25.73035 20.8267,25.93465 19.7965,25.93465 C18.7669,25.93465 17.7835,25.73035 16.8827,25.36295 L16.8827,25.36295 Z M33,0 L33,25.4919 L28.357222,25.4919 L28.357222,23.8155 L31.2169639,23.8155 L31.2169639,1.6763 L7.78292883,1.6763 L7.78292883,23.8155 L10.5061658,23.8155 L10.5061658,25.4919 L6,25.4919 L6,0 L33,0 Z M26.8764,21.36115 C26.4252,22.34465 25.7786,23.21925 24.9865,23.93355 L24.9865,23.93355 L14.6072,23.93355 C13.8145,23.21975 13.1685,22.34525 12.7173,21.36115 L12.7173,21.36115 Z M27.3712,16.21685 C27.5152,16.81265 27.5931,17.43465 27.5931,18.07445 C27.5931,18.71425 27.5152,19.33625 27.3712,19.93205 L27.3712,19.93205 L12.222,19.93205 C12.078,19.33625 12,18.71425 12,18.07445 C12,17.43415 12.078,16.81265 12.222,16.21685 L12.222,16.21685 Z M24.9865,12.21495 C25.7791,12.92915 26.4252,13.80375 26.8764,14.78735 L26.8764,14.78735 L12.7173,14.78735 C13.1685,13.80325 13.8145,12.92865 14.6072,12.21495 L14.6072,12.21495 Z M19.7965,10.21415 C20.8267,10.21415 21.8096,10.41805 22.7104,10.78585 L22.7104,10.78585 L16.8827,10.78585 C17.7835,10.41855 18.7664,10.21415 19.7965,10.21415 Z" id="Combined-Shape" fill="#2A468E" fill-rule="nonzero"></path>
    </g>
</svg>