<?xml version="1.0" encoding="UTF-8"?>
<svg width="27px" height="27px" viewBox="6 0 27 27" version="1.1" xmlns="http://www.w3.org/2000/svg">
    <path d="M33,0 L33,26.2785 L28.3572402,26.2785 L28.3572402,24.5504 L31.2170257,24.5504 L31.2170257,1.7281 L7.78297429,1.7281 L7.78297429,24.5504 L10.5067459,24.5504 L10.5067459,26.2785 L6,26.2785 L6,0 L33,0 Z M19.1382,10 C19.9043,10 20.6454,10.108 21.3491,10.3063 C20.9579,10.2236 20.5526,10.1782 20.137,10.1782 C16.9186,10.1782 14.2998,12.7852 14.2998,15.9901 C14.2998,19.1945 16.9181,21.802 20.137,21.802 C23.3554,21.802 25.9743,19.195 25.9743,15.9901 C25.9743,14.1135 25.0726,12.4465 23.682,11.3834 C25.849,12.8408 27.2764,15.3089 27.2764,18.1028 C27.2764,22.5707 23.6256,26.2056 19.1382,26.2056 C14.6508,26.2056 11,22.5707 11,18.1028 C11,13.6349 14.6508,10 19.1382,10 Z M20.7658,10.4024 C23.0314,10.4024 24.868,12.231 24.868,14.4867 C24.868,16.7425 23.0314,18.5711 20.7658,18.5711 C18.5002,18.5711 16.6636,16.7425 16.6636,14.4867 C16.6636,12.231 18.5002,10.4024 20.7658,10.4024 Z" fill="#EEC851" fill-rule="nonzero"></path>
</svg>