<?xml version="1.0" encoding="utf-8"?>
<svg version="1.1" xmlns="http://www.w3.org/2000/svg" viewBox="460 110 185 185" width="180" height="180">
<style type="text/css">
	.st0{fill:#FFFFFF;}
	.st1{fill:#FFFFFF;}
	.st2{fill:#FFFFFF;}
	.st3{fill:#FFFFFF;}
	.st4{fill:#FFFFFF;}
	.st5{fill:#FFFFFF;}
</style>
<g>
	<path class="st0" d="M550,180.7l-11.3,7.7c-0.3,0.2-0.7,0-0.8-0.4l-0.4-13.7c-0.1-4.4,3.3-8,7.7-8.1
		C553.1,166.1,556.3,176.3,550,180.7L550,180.7z"/>
	<path class="st1" d="M555.9,212l-13.6,0.8c-0.4,0-0.6-0.4-0.4-0.7l6.7-11.9c2.1-3.8,7-5.1,10.8-3
		C566.1,201.1,563.6,211.6,555.9,212L555.9,212z"/>
	<path class="st1" d="M542.5,234l-7.5-11.4c-0.2-0.3,0-0.7,0.4-0.7l13.7-0.1c4.4,0,7.9,3.5,8,7.8C557.1,237.4,546.8,240.5,542.5,234
		L542.5,234z"/>
	<path class="st1" d="M516.7,233.7l6.1-12.2c0.2-0.3,0.6-0.4,0.8,0l6.9,11.8c2.2,3.8,1,8.6-2.8,10.8
		C521,248,513.2,240.6,516.7,233.7L516.7,233.7z"/>
	<path class="st2" d="M504.5,210.8l13.6-0.8c0.4,0,0.6,0.4,0.4,0.7l-6.7,11.9c-2.1,3.8-7,5.1-10.8,3
		C494.2,221.6,496.8,211.2,504.5,210.8L504.5,210.8z"/>
	<path class="st1" d="M518.3,188.8l7.5,11.4c0.2,0.3,0,0.7-0.4,0.7l-13.7,0.1c-4.4,0-7.9-3.5-8-7.8
		C503.7,185.4,514,182.4,518.3,188.8L518.3,188.8z"/>
	<path class="st3" d="M485.8,176.3l7.1,11.7c0.2,0.3,0,0.7-0.4,0.7l-13.7-0.4c-4.4-0.1-7.8-3.7-7.7-8.1
		C471.4,172.4,481.8,169.7,485.8,176.3L485.8,176.3z"/>
	<path class="st0" d="M521.9,267.8l6.5-12c0.2-0.3,0.7-0.3,0.8,0l6.5,12c2.1,3.8,0.7,8.6-3.2,10.7
		C525.7,282.3,518.2,274.6,521.9,267.8L521.9,267.8z"/>
	<path class="st3" d="M577.9,248.3l-7.1-11.7c-0.2-0.3,0-0.7,0.4-0.7l13.7,0.4c4.4,0.1,7.8,3.7,7.7,8.1
		C592.4,252.2,582,254.8,577.9,248.3L577.9,248.3z"/>
	<path class="st4" d="M476.1,232.6l13.7-0.4c0.4,0,0.6,0.4,0.4,0.7l-7.1,11.7c-2.3,3.7-7.1,4.9-10.9,2.6
		C465.5,243.1,468.4,232.8,476.1,232.6L476.1,232.6z"/>
	<path class="st2" d="M576.8,134.6l-12.1,6.3c-0.3,0.2-0.7-0.1-0.7-0.5l1.3-13.6c0.4-4.3,4.3-7.5,8.6-7.1
		C581.7,120.5,583.7,131.1,576.8,134.6L576.8,134.6z"/>
	<path class="st4" d="M625.2,190.6l-12.8-4.8c-0.4-0.1-0.4-0.6-0.1-0.8l11-8.1c3.5-2.6,8.4-1.9,11,1.7
		C639,184.8,632.4,193.3,625.2,190.6L625.2,190.6z"/>
	<path class="st5" d="M525.5,153l-2.1,16.2c-0.1,0.5-0.6,0.7-0.9,0.4L510,158.9c-4-3.4-4.4-9.4-1-13.3
		C515,138.4,526.7,143.8,525.5,153L525.5,153z"/>
	<path class="st5" d="M589.3,180.1l-16.3-0.7c-0.5,0-0.7-0.5-0.4-0.9l9.5-13.3c3-4.2,8.9-5.2,13.2-2.2
		C602.8,168.5,598.5,180.5,589.3,180.1L589.3,180.1z"/>
	<path class="st5" d="M592.8,222l-14.4-7.8c-0.4-0.2-0.4-0.8,0-1l14.4-7.8c4.6-2.5,10.3-0.8,12.8,3.8
		C610.1,217.4,600.9,226.4,592.8,222L592.8,222z"/>
	<path class="st5" d="M545.3,257l-4.1-15.8c-0.1-0.4,0.3-0.8,0.7-0.7l15.5,5.2c4.9,1.7,7.6,7,6,12
		C560.4,266.5,547.6,265.9,545.3,257L545.3,257z"/>
	<path class="st5" d="M498.5,247.2l11.7-11.5c0.3-0.3,0.9-0.2,1,0.3l3.3,16c1,5.1-2.3,10.1-7.4,11.1
		C497.8,265.1,491.9,253.7,498.5,247.2L498.5,247.2z"/>
	<path class="st5" d="M483.7,201.8l15.8,4.4c0.4,0.1,0.6,0.7,0.2,1L487.4,218c-3.9,3.5-9.9,3.1-13.3-0.8
		C467.8,210.2,474.8,199.4,483.7,201.8L483.7,201.8z"/>
</g>
</svg>
