<?xml version="1.0" encoding="UTF-8"?>
<svg width="39px" height="42px" viewBox="0 0 39 42" version="1.1" xmlns="http://www.w3.org/2000/svg" xmlns:xlink="http://www.w3.org/1999/xlink">
    <title>Artboard</title>
    <g id="Artboard" stroke="none" stroke-width="1" fill="none" fill-rule="evenodd">
        <path d="M3.99914531,32.0644719 L3.99914531,33.8248953 C3.99914531,34.3410969 4.20444375,34.5991672 4.61473594,34.5991672 C5.0217375,34.5991672 5.22569531,34.3410969 5.22569531,33.8248953 L5.22569531,32.0644719 L6.12830156,32.0644719 L6.12830156,33.8525609 C6.12830156,34.3318344 5.99472656,34.7021516 5.72788125,34.9632078 C5.46079219,35.2242641 5.08681875,35.3549141 4.60510781,35.3549141 C4.12345781,35.3549141 3.74985,35.2242641 3.48300469,34.9632078 C3.21622031,34.7021516 3.08264531,34.3318344 3.08264531,33.8525609 L3.08264531,32.0644719 L3.99914531,32.0644719 Z M11.80725,32 C12.1497797,32 12.457575,32.0723937 12.7306969,32.2165719 C13.0037578,32.36075 13.2183188,32.5605641 13.374075,32.8157094 C13.5297703,33.0707937 13.6078313,33.3578703 13.6078313,33.6774875 C13.6078313,33.9971047 13.5297703,34.2841203 13.374075,34.5392656 C13.2180141,34.79435 13.0037578,34.9941641 12.7306969,35.1383422 C12.457575,35.2828859 12.1497797,35.354975 11.80725,35.354975 C11.4647813,35.354975 11.1572906,35.2828859 10.8838641,35.1383422 C10.6108031,34.9941641 10.3961813,34.79435 10.2404859,34.5392656 C10.0847906,34.2844859 10.0067297,33.9971047 10.0067297,33.6774875 C10.0067297,33.3578703 10.0847906,33.0707937 10.2404859,32.8157094 C10.3965469,32.5609297 10.6108031,32.3611156 10.8838641,32.2165719 C11.156925,32.0720891 11.4647813,32 11.80725,32 Z M27.3038391,32 C27.6463688,32 27.9541641,32.0723937 28.227225,32.2165719 C28.5003469,32.36075 28.7149078,32.5605641 28.8706031,32.8157094 C29.0262984,33.0707937 29.1043594,33.3578703 29.1043594,33.6774875 C29.1043594,33.9971047 29.0262984,34.2841203 28.8706031,34.5392656 C28.7145422,34.79435 28.5003469,34.9941641 28.227225,35.1383422 C27.9541641,35.2828859 27.6463688,35.354975 27.3038391,35.354975 C26.9613094,35.354975 26.6538188,35.2828859 26.3803922,35.1383422 C26.1073312,34.9941641 25.8927703,34.79435 25.7370141,34.5392656 C25.5813187,34.2844859 25.5033187,33.9971047 25.5033187,33.6774875 C25.5033187,33.3578703 25.5813187,33.0707937 25.7370141,32.8157094 C25.893075,32.5609297 26.1073312,32.3611156 26.3803922,32.2165719 C26.6535141,32.0720891 26.9613094,32 27.3038391,32 Z M37.6904531,32 C37.9036734,32 38.1132984,32.0237047 38.3199375,32.0714187 C38.5265766,32.1191328 38.7087187,32.1889672 38.8661203,32.2811047 L38.5837359,32.9585469 C38.2749656,32.792675 37.9757625,32.7096781 37.6858219,32.7096781 C37.5036187,32.7096781 37.3710797,32.7366734 37.2877172,32.7903594 C37.2044156,32.84435 37.1627953,32.9141234 37.1627953,33.0000453 C37.1627953,33.0859672 37.2120328,33.1508047 37.3108734,33.1935828 C37.4094094,33.2367266 37.5684562,33.28115 37.7872828,33.3272187 C38.0342625,33.3795641 38.2385859,33.4355047 38.4006187,33.4954672 C38.5625906,33.5553687 38.7027469,33.6507969 38.8214531,33.7811422 C38.9401594,33.9118531 38.9996344,34.0893031 38.9996344,34.3134312 C38.9996344,34.5069687 38.9457656,34.6821031 38.8379672,34.8388344 C38.7298641,34.9955047 38.5678922,35.1206094 38.3516859,35.2143922 C38.1354187,35.3082359 37.8735703,35.354975 37.5648,35.354975 C37.3032562,35.354975 37.0483547,35.3226781 36.8017406,35.2582063 C36.5547609,35.1936734 36.3540937,35.1077516 36.2000437,35.000075 L36.5008922,34.3272641 C36.6456797,34.4223875 36.8139891,34.4991078 37.0053937,34.5576687 C37.1964937,34.6159859 37.3846078,34.6452359 37.5701016,34.6452359 C37.9215281,34.6452359 38.0977594,34.5576687 38.0977594,34.3825953 C38.0977594,34.2903969 38.0474859,34.2219031 37.9473047,34.1774797 C37.8468187,34.1330562 37.6858219,34.0860125 37.4636437,34.0369578 C37.2199547,33.9846125 37.0159969,33.9286109 36.8523187,33.8687094 C36.6890062,33.8088078 36.5484844,33.7127094 36.4314234,33.5807187 C36.3144234,33.4486672 36.2555578,33.2703031 36.2555578,33.0461141 C36.2555578,32.8495906 36.3094266,32.6721406 36.4175906,32.513825 C36.5253281,32.3558141 36.6866906,32.2304047 36.9012516,32.1382672 C37.1155078,32.0460687 37.3786359,32 37.6904531,32 Z M2.54109375,32.0644719 L2.54109375,32.7695797 L0.9072375,32.7695797 L0.9072375,33.3133859 L2.34670313,33.3133859 L2.34670313,33.9954594 L0.9072375,33.9954594 L0.9072375,34.5853344 L2.6013,34.5853344 L2.6013,35.2904422 L0,35.2904422 L0,32.0644719 L2.54109375,32.0644719 Z M8.22967031,32.0644719 C8.52290156,32.0644719 8.77713281,32.1128563 8.9934,32.209625 C9.20960625,32.3064547 9.37590469,32.4446609 9.493575,32.6244266 C9.61063594,32.8041313 9.66950156,33.0154625 9.66950156,33.2580547 C9.66950156,33.4914453 9.61459687,33.6952203 9.50515312,33.8687094 C9.39540469,34.0421984 9.23867344,34.17815 9.03538594,34.2765641 L9.73397344,35.2904422 L8.75269687,35.2904422 L8.16483281,34.4332344 L7.6649625,34.4332344 L7.6649625,35.2904422 L6.74882812,35.2904422 L6.74882812,32.0644719 L8.22967031,32.0644719 Z M14.8432781,32.0644719 L15.9819563,33.9262953 L17.0927859,32.0644719 L17.8469484,32.0644719 L17.8562109,35.2904422 L17.0144203,35.2904422 L17.0051578,33.5806578 L16.1720203,34.9724094 L15.7647141,34.9724094 L14.9362078,33.6267266 L14.9362078,35.2904422 L14.0891766,35.2904422 L14.0891766,32.0644719 L14.8432781,32.0644719 Z M19.4212687,32.0644719 L19.4212687,35.2904422 L18.5051344,35.2904422 L18.5051344,32.0644719 L19.4212687,32.0644719 Z M20.9904094,32.0644719 L20.9904094,34.5668703 L22.5363328,34.5668703 L22.5363328,35.2904422 L20.074275,35.2904422 L20.074275,32.0644719 L20.9904094,32.0644719 Z M23.8135219,32.0644719 L23.8135219,34.5668703 L25.3595062,34.5668703 L25.3595062,35.2904422 L22.8973875,35.2904422 L22.8973875,32.0644719 L23.8135219,32.0644719 Z M30.3402328,32.0644719 L31.7704359,33.7834578 L31.7704359,32.0644719 L32.6684109,32.0644719 L32.6684109,35.2904422 L31.9142484,35.2904422 L30.4840453,33.5714563 L30.4840453,35.2904422 L29.5860703,35.2904422 L29.5860703,32.0644719 L30.3402328,32.0644719 Z M35.8578187,32.0644719 L35.8578187,32.7695797 L34.2239016,32.7695797 L34.2239016,33.3133859 L35.6634281,33.3133859 L35.6634281,33.9954594 L34.2239016,33.9954594 L34.2239016,34.5853344 L35.9176594,34.5853344 L35.9176594,35.2904422 L33.316725,35.2904422 L33.316725,32.0644719 L35.8578187,32.0644719 Z M11.80725,32.7558078 C11.6436328,32.7558078 11.4958594,32.7943203 11.3629547,32.8709797 C11.2303547,32.9477 11.1252375,33.0559859 11.0481516,33.1958984 C10.9711266,33.3358109 10.9324922,33.4960766 10.9324922,33.6774875 C10.9324922,33.8588375 10.9708219,34.0191641 11.0481516,34.1590766 C11.1255422,34.2989281 11.2303547,34.407275 11.3629547,34.4839344 C11.4954938,34.5606547 11.6436328,34.5991672 11.80725,34.5991672 C11.9709281,34.5991672 12.1190672,34.5606547 12.2516063,34.4839344 C12.3842063,34.407275 12.4893234,34.2989281 12.5663484,34.1590766 C12.6433734,34.0191641 12.6824344,33.8588375 12.6824344,33.6774875 C12.6824344,33.4960766 12.6437391,33.3358109 12.5663484,33.1958984 C12.4890188,33.0559859 12.3842063,32.9477 12.2516063,32.8709797 C12.1190672,32.7943203 11.9709281,32.7558078 11.80725,32.7558078 Z M27.3038391,32.7558078 C27.1401609,32.7558078 26.9923875,32.7943203 26.8594828,32.8709797 C26.7268828,32.9477 26.6217656,33.0559859 26.5447406,33.1958984 C26.4677156,33.3358109 26.4290203,33.4960766 26.4290203,33.6774875 C26.4290203,33.8588375 26.46735,34.0191641 26.5447406,34.1590766 C26.6220703,34.2989281 26.7268828,34.407275 26.8594828,34.4839344 C26.9920828,34.5606547 27.1401609,34.5991672 27.3038391,34.5991672 C27.4674563,34.5991672 27.6155953,34.5606547 27.7481953,34.4839344 C27.8807344,34.407275 27.9859125,34.2989281 28.0629375,34.1590766 C28.1399625,34.0191641 28.1789625,33.8588375 28.1789625,33.6774875 C28.1789625,33.4960766 28.1402672,33.3358109 28.0629375,33.1958984 C27.9855469,33.0559859 27.8807344,32.9477 27.7481953,32.8709797 C27.6155953,32.7943203 27.4674563,32.7558078 27.3038391,32.7558078 Z M8.17409531,32.7834125 L7.6649625,32.7834125 L7.6649625,33.7281266 L8.17409531,33.7281266 C8.36220937,33.7281266 8.50437656,33.6872984 8.59992656,33.6060078 C8.69547656,33.5247172 8.74343437,33.4085094 8.74343437,33.2580547 C8.74343437,33.1076609 8.69547656,32.9907828 8.59992656,32.9078469 C8.50437656,32.8249109 8.36220937,32.7834125 8.17409531,32.7834125 Z M33,0 L33,26.2785 L28.3572402,26.2785 L28.3572402,24.5504 L31.2170257,24.5504 L31.2170257,1.7281 L7.78297429,1.7281 L7.78297429,24.5504 L10.5067459,24.5504 L10.5067459,26.2785 L6,26.2785 L6,0 L33,0 Z M19.1382,10 C19.9043,10 20.6454,10.108 21.3491,10.3063 C20.9579,10.2236 20.5526,10.1782 20.137,10.1782 C16.9186,10.1782 14.2998,12.7852 14.2998,15.9901 C14.2998,19.1945 16.9181,21.802 20.137,21.802 C23.3554,21.802 25.9743,19.195 25.9743,15.9901 C25.9743,14.1135 25.0726,12.4465 23.682,11.3834 C25.849,12.8408 27.2764,15.3089 27.2764,18.1028 C27.2764,22.5707 23.6256,26.2056 19.1382,26.2056 C14.6508,26.2056 11,22.5707 11,18.1028 C11,13.6349 14.6508,10 19.1382,10 Z M20.7658,10.4024 C23.0314,10.4024 24.868,12.231 24.868,14.4867 C24.868,16.7425 23.0314,18.5711 20.7658,18.5711 C18.5002,18.5711 16.6636,16.7425 16.6636,14.4867 C16.6636,12.231 18.5002,10.4024 20.7658,10.4024 Z" id="Combined-Shape" fill="#EEC851" fill-rule="nonzero"></path>
    </g>
</svg>