<?xml version="1.0" encoding="UTF-8"?>
<svg width="27px" height="27px" viewBox="6 0 27 27" version="1.1" xmlns="http://www.w3.org/2000/svg">
    <path d="M33,0 L33,26.733 L28.3572727,26.733 L28.3572727,24.975 L31.2170788,24.975 L31.2170788,1.7579 L7.7830237,1.7579 L7.7830237,24.975 L10.5062338,24.975 L10.5062338,26.733 L6,26.733 L6,0 L33,0 Z M22.2078,26.08665 C21.2652,26.47185 20.2367,26.68615 19.1586,26.68615 C18.0811,26.68615 17.0521,26.47185 16.1095,26.08665 L16.1095,26.08665 Z M26.5672,21.88985 C26.0951,22.92135 25.4185,23.83845 24.5895,24.58745 L24.5895,24.58745 L13.7282,24.58745 C12.8988,23.83905 12.2227,22.92185 11.7506,21.88985 L11.7506,21.88985 Z M27.085,16.49515 C27.2356,17.11995 27.3172,17.77225 27.3172,18.44325 C27.3172,19.11415 27.2356,19.76645 27.085,20.39125 L27.085,20.39125 L11.2322,20.39125 C11.0816,19.76645 11,19.11415 11,18.44325 C11,17.77165 11.0816,17.11995 11.2322,16.49515 L11.2322,16.49515 Z M24.5895,12.29835 C25.419,13.04735 26.0951,13.96455 26.5672,14.99595 L26.5672,14.99595 L11.7506,14.99595 C12.2227,13.96395 12.8988,13.04685 13.7282,12.29835 L13.7282,12.29835 Z M19.1586,10.20025 C20.2367,10.20025 21.2652,10.41405 22.2078,10.79975 L22.2078,10.79975 L16.1095,10.79975 C17.0521,10.41455 18.0806,10.20025 19.1586,10.20025 Z" fill="#FFFFFF" fill-rule="nonzero"></path>
</svg>