<?xml version="1.0" encoding="UTF-8"?>
<svg width="39px" height="42px" viewBox="0 0 39 42" version="1.1" xmlns="http://www.w3.org/2000/svg" xmlns:xlink="http://www.w3.org/1999/xlink">
    <title>Artboard</title>
    <g id="Artboard" stroke="none" stroke-width="1" fill="none" fill-rule="evenodd">
        <path d="M1.06874182,33 L1.06874182,35.9622982 L2.87217273,35.9622982 L2.87217273,36.8187382 L-2.22044605e-16,36.8187382 L-2.22044605e-16,33 L1.06874182,33 Z M5.60437091,33 L7.27818,36.8187382 L6.16625455,36.8187382 L5.86893273,36.0768164 L4.27064182,36.0768164 L3.97332,36.8187382 L2.88337636,36.8187382 L4.55144182,33 L5.60437091,33 Z M10.8796527,33 C11.2217891,33 11.5184018,33.0572945 11.7706255,33.1718836 C12.0224236,33.2864018 12.2168564,33.45006 12.3541364,33.6628582 C12.4907073,33.8755855 12.5593473,34.1257527 12.5593473,34.4129345 C12.5593473,34.7001164 12.4907073,34.9491491 12.3541364,35.1603164 C12.2172109,35.3715545 12.0228491,35.5340073 11.7706255,35.6485964 C11.5184018,35.7631145 11.2217891,35.8204091 10.8796527,35.8204091 L10.2209782,35.8204091 L10.2209782,36.8187382 L9.15223636,36.8187382 L9.15223636,33 L10.8796527,33 Z M14.8046836,33 C15.14682,33 15.4433618,33.0572945 15.6956564,33.1718836 C15.94788,33.2864018 16.1418873,33.45006 16.2791673,33.6628582 C16.4156673,33.8755855 16.4843073,34.1257527 16.4843073,34.4129345 C16.4843073,34.6891964 16.4203473,34.9304291 16.29264,35.1357818 C16.1645782,35.3411345 15.9817745,35.5020982 15.7445836,35.6186018 L16.5595418,36.8187382 L15.4148564,36.8187382 L14.7290945,35.8040291 L14.1459382,35.8040291 L14.1459382,36.8187382 L13.0772673,36.8187382 L13.0772673,33 L14.8046836,33 Z M18.14202,33 L18.14202,36.8187382 L17.0733491,36.8187382 L17.0733491,33 L18.14202,33 Z M19.7830691,33 L21.1113382,35.2039964 L22.4072727,33 L23.2869709,33 L23.29782,36.8187382 L22.3158709,36.8187382 L22.3050218,34.7948509 L21.3331418,36.4423527 L20.85798,36.4423527 L19.8914891,34.84938 L19.8914891,36.8187382 L18.9033709,36.8187382 L18.9033709,33 L19.7830691,33 Z M25.1231618,33 L25.1231618,36.8187382 L24.0544909,36.8187382 L24.0544909,33 L25.1231618,33 Z M28.9137491,33 L28.9137491,33.8565109 L27.7582145,33.8565109 L27.7582145,36.8187382 L26.6894727,36.8187382 L26.6894727,33.8565109 L25.5281945,33.8565109 L25.5281945,33 L28.9137491,33 Z M30.3823473,33 L30.3823473,36.8187382 L29.3136055,36.8187382 L29.3136055,33 L30.3823473,33 Z M31.8348491,33 L32.8607618,35.4876327 L33.9082309,33 L34.9665491,33 L33.3467018,36.8187382 L32.2941982,36.8187382 L30.6793145,33 L31.8348491,33 Z M37.3256945,33 L38.9995745,36.8187382 L37.8872945,36.8187382 L37.5906818,36.0768164 L35.9924618,36.0768164 L35.6950691,36.8187382 L34.6043455,36.8187382 L36.2728364,33 L37.3256945,33 Z M5.06978727,34.0583891 L4.58342182,35.2803655 L5.55615273,35.2803655 L5.06978727,34.0583891 Z M36.7911818,34.0583891 L36.3052418,35.2803655 L37.2775473,35.2803655 L36.7911818,34.0583891 Z M10.8149127,33.8510509 L10.2209782,33.8510509 L10.2209782,34.9694291 L10.8149127,34.9694291 C11.0343764,34.9694291 11.2001618,34.9210691 11.3116309,34.8248455 C11.4231,34.7285509 11.4790473,34.5910582 11.4790473,34.4129345 C11.4790473,34.2344564 11.4231,34.0965382 11.3116309,33.9983291 C11.2001618,33.90012 11.0343764,33.8510509 10.8149127,33.8510509 Z M14.7402982,33.8510509 L14.1463636,33.8510509 L14.1463636,34.9694291 L14.7402982,34.9694291 C14.9597618,34.9694291 15.1256182,34.9210691 15.2370164,34.8248455 C15.3484855,34.7285509 15.4044327,34.5910582 15.4044327,34.4129345 C15.4040782,34.2348818 15.3484855,34.0965382 15.2370164,33.9983291 C15.1256182,33.90012 14.9597618,33.8510509 14.7402982,33.8510509 Z M33,0 L33,26.733 L28.3572727,26.733 L28.3572727,24.975 L31.2170788,24.975 L31.2170788,1.7579 L7.7830237,1.7579 L7.7830237,24.975 L10.5062338,24.975 L10.5062338,26.733 L6,26.733 L6,0 L33,0 Z M22.2078,26.08665 C21.2652,26.47185 20.2367,26.68615 19.1586,26.68615 C18.0811,26.68615 17.0521,26.47185 16.1095,26.08665 L16.1095,26.08665 Z M26.5672,21.88985 C26.0951,22.92135 25.4185,23.83845 24.5895,24.58745 L24.5895,24.58745 L13.7282,24.58745 C12.8988,23.83905 12.2227,22.92185 11.7506,21.88985 L11.7506,21.88985 Z M27.085,16.49515 C27.2356,17.11995 27.3172,17.77225 27.3172,18.44325 C27.3172,19.11415 27.2356,19.76645 27.085,20.39125 L27.085,20.39125 L11.2322,20.39125 C11.0816,19.76645 11,19.11415 11,18.44325 C11,17.77165 11.0816,17.11995 11.2322,16.49515 L11.2322,16.49515 Z M24.5895,12.29835 C25.419,13.04735 26.0951,13.96455 26.5672,14.99595 L26.5672,14.99595 L11.7506,14.99595 C12.2227,13.96395 12.8988,13.04685 13.7282,12.29835 L13.7282,12.29835 Z M19.1586,10.20025 C20.2367,10.20025 21.2652,10.41405 22.2078,10.79975 L22.2078,10.79975 L16.1095,10.79975 C17.0521,10.41455 18.0806,10.20025 19.1586,10.20025 Z" id="Combined-Shape" fill="#EEC851" fill-rule="nonzero"></path>
    </g>
</svg>