<?xml version="1.0" encoding="UTF-8"?>
<svg width="39px" height="42px" viewBox="0 0 39 42" version="1.1" xmlns="http://www.w3.org/2000/svg" xmlns:xlink="http://www.w3.org/1999/xlink">
    <title>Artboard</title>
    <g id="Artboard" stroke="none" stroke-width="1" fill="none" fill-rule="evenodd">
        <path d="M11.6919,31 C12.114375,31 12.494025,31.090225 12.83085,31.269775 C13.16775,31.449325 13.432425,31.698175 13.6245,32.01595 C13.816575,32.33365 13.9128,32.691175 13.9128,33.089275 C13.9128,33.540625 13.790025,33.93955 13.54455,34.285975 C13.299075,34.6324 12.9687,34.88005 12.55395,35.029225 C12.630225,35.1133 12.7053,35.172775 12.779475,35.2072 C12.8541,35.241625 12.9345,35.258875 13.022175,35.258875 C13.246875,35.258875 13.4487,35.164975 13.62735,34.977625 L14.11875,35.563075 C13.9854,35.727475 13.82265,35.852875 13.630575,35.938975 C13.438125,36.025075 13.2285,36.068125 12.99975,36.068125 C12.7791,36.068125 12.5793,36.039475 12.400275,35.982025 C12.221175,35.92465 12.0414,35.829925 11.860725,35.697925 C11.68005,35.565925 11.4774,35.381425 11.2527,35.14405 C10.90605,35.086675 10.5981,34.9624 10.327725,34.771 C10.05735,34.579525 9.846975,34.338475 9.6969,34.047775 C9.546375,33.757075 9.470925,33.437275 9.470925,33.089275 C9.470925,32.691175 9.567225,32.33365 9.7593,32.01595 C9.95175,31.698625 10.21605,31.449775 10.552875,31.269775 C10.8897,31.089775 11.26935,31 11.6919,31 Z M15.602775,31.0804 L15.602775,33.27295 C15.602775,33.915775 15.85605,34.237225 16.36215,34.237225 C16.864125,34.237225 17.11575,33.915775 17.11575,33.27295 L17.11575,31.0804 L18.22905,31.0804 L18.22905,33.307375 C18.22905,33.9043 18.06435,34.36555 17.73525,34.690675 C17.4057,35.015725 16.94445,35.17855 16.3503,35.17855 C15.75615,35.17855 15.295725,35.015725 14.966625,34.690675 C14.637075,34.36555 14.47275,33.9043 14.47275,33.307375 L14.47275,31.0804 L15.602775,31.0804 Z M1.13004,31.0804 L1.13004,34.197025 L3.0369525,34.197025 L3.0369525,35.09815 L0,35.09815 L0,31.0804 L1.13004,31.0804 Z M5.9258925,31.0804 L7.69575,35.09815 L6.520065,35.09815 L6.20565,34.31755 L4.51569,34.31755 L4.2012675,35.09815 L3.048795,35.09815 L4.81257,31.0804 L5.9258925,31.0804 Z M20.1246,31.0804 L20.1246,35.09815 L18.9945,35.09815 L18.9945,31.0804 L20.1246,31.0804 Z M21.860175,31.0804 L23.624325,33.221275 L23.624325,31.0804 L24.732,31.0804 L24.732,35.09815 L23.801775,35.09815 L22.03755,32.957275 L22.03755,35.09815 L20.92995,35.09815 L20.92995,31.0804 L21.860175,31.0804 Z M26.66175,31.0804 L26.66175,35.09815 L25.53165,35.09815 L25.53165,31.0804 L26.66175,31.0804 Z M30.6015,31.0804 L30.6015,31.958575 L28.5861,31.958575 L28.5861,32.635825 L30.361725,32.635825 L30.361725,33.485275 L28.5861,33.485275 L28.5861,34.219975 L30.6753,34.219975 L30.6753,35.09815 L27.4671,35.09815 L27.4671,31.0804 L30.6015,31.0804 Z M32.433825,31.0804 L32.433825,34.197025 L34.340775,34.197025 L34.340775,35.09815 L31.3038,35.09815 L31.3038,31.0804 L32.433825,31.0804 Z M37.229625,31.0804 L38.99955,35.09815 L37.8234,35.09815 L37.509825,34.31755 L35.81985,34.31755 L35.50545,35.09815 L34.352175,35.09815 L36.116325,31.0804 L37.229625,31.0804 Z M11.692275,31.941325 C11.49045,31.941325 11.308125,31.98925 11.144175,32.0848 C10.980675,32.18035 10.851,32.3152 10.755975,32.489425 C10.66095,32.66365 10.61325,32.863375 10.61325,33.089275 C10.61325,33.315175 10.66095,33.514825 10.755975,33.68905 C10.851,33.863275 10.980675,33.998125 11.144175,34.093675 C11.30775,34.189225 11.49045,34.23715 11.692275,34.23715 C11.894175,34.23715 12.076425,34.189225 12.240375,34.093675 C12.403875,33.998125 12.533625,33.863275 12.62865,33.68905 C12.7236,33.514825 12.77175,33.315175 12.77175,33.089275 C12.77175,32.863375 12.72405,32.66365 12.62865,32.489425 C12.533175,32.3152 12.403875,32.18035 12.240375,32.0848 C12.076875,31.98925 11.894175,31.941325 11.692275,31.941325 Z M5.36067,32.19385 L4.8464175,33.479575 L5.874915,33.479575 L5.36067,32.19385 Z M36.664425,32.19385 L36.1506,33.479575 L37.1787,33.479575 L36.664425,32.19385 Z M33,0 L33,26.5922 L28.3572304,26.5922 L28.3572304,24.8435 L31.2170633,24.8435 L31.2170633,1.74869 L7.78303918,1.74869 L7.78303918,24.8435 L10.5062356,24.8435 L10.5062356,26.5922 L6,26.5922 L6,0 L33,0 Z M20.3149,18.1837 L26.4603,22.3616 L19.0916762,25.8809191 L12.8324,22.4163 L20.3149,18.1837 Z M19.5417,10 L19.905,17.449 L12.4219,21.6822 L12,14.266 L19.5417,10 Z M20.3872,10.11914 L26.4407,14.2353 L26.7974,21.5734 L20.7444,17.4566 L20.3872,10.11914 Z" id="Combined-Shape" fill="#EEC851" fill-rule="nonzero"></path>
    </g>
</svg>