<?xml version="1.0" encoding="utf-8"?>
<!-- Generator: Adobe Illustrator 27.9.0, SVG Export Plug-In . SVG Version: 6.00 Build 0)  -->
<svg version="1.1" id="Capa_1" xmlns="http://www.w3.org/2000/svg" xmlns:xlink="http://www.w3.org/1999/xlink" x="0px" y="0px"
	 viewBox="0 0 696 528" style="enable-background:new 0 0 696 528;" xml:space="preserve">
<style type="text/css">
	.st0{fill:#6E368C;}
	.st1{fill:#EE7A9D;}
	.st2{fill:#5BC5F2;}
	.st3{fill:#F08159;}
	.st4{fill:#52B374;}
	.st5{fill:#E50056;}
</style>
<g>
	<g>
		<g>
			<path class="st0" d="M104.9,239.5v22.6h-83V158.8H103v22.6H50.9v17.4h45.9v21.9H50.9v18.9H104.9z"/>
			<path class="st0" d="M120.3,216.1v-57.3h29.2v56.4c0,17.7,7.4,24.8,19.6,24.8c12.1,0,19.5-7.1,19.5-24.8v-56.4h28.8v57.3
				c0,30.9-18,48.1-48.6,48.1C138.3,264.2,120.3,246.9,120.3,216.1z"/>
			<path class="st0" d="M282.4,234.7h-15.9v27.5h-29.2V158.8h47.3c28.2,0,45.9,14.6,45.9,38.3c0,15.2-7.4,26.4-20.2,32.6l22.3,32.5
				h-31.3L282.4,234.7z M282.7,181.8h-16.2v30.3h16.2c12.1,0,18.2-5.6,18.2-15.1C300.9,187.4,294.8,181.8,282.7,181.8z"/>
			<path class="st0" d="M341.2,210.4c0-31,24.4-53.8,57.5-53.8s57.5,22.7,57.5,53.8c0,31-24.4,53.8-57.5,53.8
				S341.2,241.5,341.2,210.4z M426.5,210.4c0-17.9-12.3-29.5-27.9-29.5c-15.7,0-27.9,11.7-27.9,29.5c0,17.9,12.3,29.5,27.9,29.5
				C414.3,240,426.5,228.3,426.5,210.4z"/>
		</g>
	</g>
	<g>
		<path class="st0" d="M21.9,279.5h48.9c34.3,0,57.7,19.9,57.7,51.7c0,31.8-23.5,51.7-57.7,51.7H21.9V279.5z M69.6,359.6
			c17.6,0,29.4-10.5,29.4-28.4c0-17.9-11.8-28.4-29.4-28.4H51.1v56.7H69.6z"/>
		<path class="st0" d="M189.1,355.5h-15.9v27.5h-29.2V279.5h47.3c28.2,0,45.9,14.6,45.9,38.3c0,15.2-7.4,26.4-20.2,32.6l22.3,32.5
			h-31.3L189.1,355.5z M189.4,302.6h-16.2v30.3h16.2c12.1,0,18.2-5.6,18.2-15.1C207.5,308.2,201.5,302.6,189.4,302.6z"/>
		<path class="st0" d="M336.2,360.3v22.6h-83V279.5h81.1v22.6h-52.1v17.4H328v21.9h-45.9v18.9H336.2z"/>
		<path class="st0" d="M421.7,362.8H378l-8.1,20.1H340l45.6-103.4h28.8l45.8,103.4h-30.4L421.7,362.8z M413.1,341.3l-13.3-33.1
			l-13.3,33.1H413.1z"/>
		<path class="st0" d="M561.8,382.9l-0.3-54.8l-26.6,44.6h-13l-26.4-43.1v53.3h-27V279.5h24.1l36.3,59.7l35.4-59.7h24.1l0.3,103.4
			H561.8z"/>
		<path class="st0" d="M602.1,373.6l9.6-21.6c9.2,6.1,22.2,10.2,34.1,10.2c12.1,0,16.8-3.4,16.8-8.4c0-16.4-58.8-4.4-58.8-42.8
			c0-18.5,15.1-33.5,45.8-33.5c13.4,0,27.3,3.1,37.5,9l-9,21.7c-9.9-5.3-19.6-8-28.7-8c-12.3,0-16.7,4.1-16.7,9.3
			c0,15.8,58.6,4,58.6,42.1c0,18-15.1,33.4-45.8,33.4C628.7,385,611.9,380.4,602.1,373.6z"/>
	</g>
</g>
<g>
	<path class="st0" d="M550,180.7l-11.3,7.7c-0.3,0.2-0.7,0-0.8-0.4l-0.4-13.7c-0.1-4.4,3.3-8,7.7-8.1
		C553.1,166.1,556.3,176.3,550,180.7L550,180.7z"/>
	<path class="st1" d="M555.9,212l-13.6,0.8c-0.4,0-0.6-0.4-0.4-0.7l6.7-11.9c2.1-3.8,7-5.1,10.8-3
		C566.1,201.1,563.6,211.6,555.9,212L555.9,212z"/>
	<path class="st1" d="M542.5,234l-7.5-11.4c-0.2-0.3,0-0.7,0.4-0.7l13.7-0.1c4.4,0,7.9,3.5,8,7.8C557.1,237.4,546.8,240.5,542.5,234
		L542.5,234z"/>
	<path class="st1" d="M516.7,233.7l6.1-12.2c0.2-0.3,0.6-0.4,0.8,0l6.9,11.8c2.2,3.8,1,8.6-2.8,10.8
		C521,248,513.2,240.6,516.7,233.7L516.7,233.7z"/>
	<path class="st2" d="M504.5,210.8l13.6-0.8c0.4,0,0.6,0.4,0.4,0.7l-6.7,11.9c-2.1,3.8-7,5.1-10.8,3
		C494.2,221.6,496.8,211.2,504.5,210.8L504.5,210.8z"/>
	<path class="st1" d="M518.3,188.8l7.5,11.4c0.2,0.3,0,0.7-0.4,0.7l-13.7,0.1c-4.4,0-7.9-3.5-8-7.8
		C503.7,185.4,514,182.4,518.3,188.8L518.3,188.8z"/>
	<path class="st3" d="M485.8,176.3l7.1,11.7c0.2,0.3,0,0.7-0.4,0.7l-13.7-0.4c-4.4-0.1-7.8-3.7-7.7-8.1
		C471.4,172.4,481.8,169.7,485.8,176.3L485.8,176.3z"/>
	<path class="st0" d="M521.9,267.8l6.5-12c0.2-0.3,0.7-0.3,0.8,0l6.5,12c2.1,3.8,0.7,8.6-3.2,10.7
		C525.7,282.3,518.2,274.6,521.9,267.8L521.9,267.8z"/>
	<path class="st3" d="M577.9,248.3l-7.1-11.7c-0.2-0.3,0-0.7,0.4-0.7l13.7,0.4c4.4,0.1,7.8,3.7,7.7,8.1
		C592.4,252.2,582,254.8,577.9,248.3L577.9,248.3z"/>
	<path class="st4" d="M476.1,232.6l13.7-0.4c0.4,0,0.6,0.4,0.4,0.7l-7.1,11.7c-2.3,3.7-7.1,4.9-10.9,2.6
		C465.5,243.1,468.4,232.8,476.1,232.6L476.1,232.6z"/>
	<path class="st2" d="M576.8,134.6l-12.1,6.3c-0.3,0.2-0.7-0.1-0.7-0.5l1.3-13.6c0.4-4.3,4.3-7.5,8.6-7.1
		C581.7,120.5,583.7,131.1,576.8,134.6L576.8,134.6z"/>
	<path class="st4" d="M625.2,190.6l-12.8-4.8c-0.4-0.1-0.4-0.6-0.1-0.8l11-8.1c3.5-2.6,8.4-1.9,11,1.7
		C639,184.8,632.4,193.3,625.2,190.6L625.2,190.6z"/>
	<path class="st5" d="M525.5,153l-2.1,16.2c-0.1,0.5-0.6,0.7-0.9,0.4L510,158.9c-4-3.4-4.4-9.4-1-13.3
		C515,138.4,526.7,143.8,525.5,153L525.5,153z"/>
	<path class="st5" d="M589.3,180.1l-16.3-0.7c-0.5,0-0.7-0.5-0.4-0.9l9.5-13.3c3-4.2,8.9-5.2,13.2-2.2
		C602.8,168.5,598.5,180.5,589.3,180.1L589.3,180.1z"/>
	<path class="st5" d="M592.8,222l-14.4-7.8c-0.4-0.2-0.4-0.8,0-1l14.4-7.8c4.6-2.5,10.3-0.8,12.8,3.8
		C610.1,217.4,600.9,226.4,592.8,222L592.8,222z"/>
	<path class="st5" d="M545.3,257l-4.1-15.8c-0.1-0.4,0.3-0.8,0.7-0.7l15.5,5.2c4.9,1.7,7.6,7,6,12
		C560.4,266.5,547.6,265.9,545.3,257L545.3,257z"/>
	<path class="st5" d="M498.5,247.2l11.7-11.5c0.3-0.3,0.9-0.2,1,0.3l3.3,16c1,5.1-2.3,10.1-7.4,11.1
		C497.8,265.1,491.9,253.7,498.5,247.2L498.5,247.2z"/>
	<path class="st5" d="M483.7,201.8l15.8,4.4c0.4,0.1,0.6,0.7,0.2,1L487.4,218c-3.9,3.5-9.9,3.1-13.3-0.8
		C467.8,210.2,474.8,199.4,483.7,201.8L483.7,201.8z"/>
</g>
</svg>
