<?xml version="1.0" encoding="UTF-8"?>
<svg width="44px" height="44px" viewBox="0 0 44 44" version="1.1" xmlns="http://www.w3.org/2000/svg" xmlns:xlink="http://www.w3.org/1999/xlink">
    <title>Group Copy 3</title>
    <g id="Page-1" stroke="none" stroke-width="1" fill="none" fill-rule="evenodd">
        <g id="Group-Copy-3" fill="#007BBD" fill-rule="nonzero">
            <path d="M18.076,17.391 L19.111,17.391 L20.145,17.391 L21.179,17.391 L22.213,17.391 L23.247,17.391 L24.281,17.391 L25.315,17.391 L26.245,17.391 L27.318,17.391 L27.381,17.391 C27.361,17.382 27.339,17.373 27.318,17.363 C25.649,16.578 23.789,16.132 21.826,16.113 C21.802,16.113 21.778,16.111 21.754,16.111 C21.743,16.111 21.734,16.11 21.723,16.11 C21.718,16.11 21.713,16.11 21.707,16.11 C21.704,16.11 21.701,16.11 21.698,16.11 C21.698,16.11 21.697,16.11 21.696,16.11 C21.694,16.11 21.693,16.11 21.691,16.11 C21.689,16.11 21.685,16.11 21.683,16.11 C21.677,16.11 21.673,16.11 21.668,16.11 C21.657,16.11 21.647,16.111 21.637,16.111 C21.61,16.111 21.585,16.113 21.558,16.113 C19.573,16.133 17.693,16.589 16.009,17.391 L17.145,17.391 L18.076,17.391 L18.076,17.391 Z" id="Path"></path>
            <path d="M11.131,30.186 C11.117,29.908 11.108,29.628 11.108,29.345 C11.108,29.061 11.117,28.781 11.131,28.502 C11.342,24.308 13.113,20.645 15.729,18.41 L14.239,18.41 C10.968,20.645 8.7535,24.308 8.4905,28.502 C8.4729,28.781 8.4614,29.061 8.4614,29.344 C8.4614,29.627 8.4738,29.908 8.4905,30.186 C8.6344,32.481 9.364,34.616 10.531,36.447 C11.318,37.684 12.306,38.781 13.448,39.692 L13.449,39.692 L15.098,39.692 C12.831,37.431 11.325,34.033 11.131,30.186 Z" id="Path"></path>
            <path d="M27.197,41.807 L26.072,41.807 L24.822,41.807 L23.572,41.807 L22.321,41.807 L21.071,41.807 L19.821,41.807 L18.571,41.807 L17.32,41.807 L16.194,41.807 L14.82,41.807 L14.819,41.807 C15.927,42.482 17.141,42.999 18.432,43.326 C19.476,43.591 20.57,43.732 21.697,43.732 C24.216,43.732 26.57,43.028 28.574,41.807 L28.573,41.807 L27.197,41.807 Z" id="Path"></path>
            <path d="M34.902,28.503 C34.638,24.309 32.424,20.646 29.153,18.411 L27.662,18.411 C30.279,20.646 32.05,24.309 32.261,28.503 C32.275,28.782 32.285,29.062 32.285,29.346 C32.285,29.629 32.275,29.909 32.261,30.187 C32.068,34.034 30.561,37.432 28.294,39.694 L29.944,39.694 L29.945,39.694 C31.115,38.759 32.124,37.633 32.92,36.359 C34.053,34.548 34.761,32.445 34.903,30.187 C34.921,29.909 34.932,29.628 34.932,29.346 C34.932,29.061 34.92,28.782 34.902,28.503 Z" id="Path"></path>
            <path d="M18.307,18.411 L16.95,18.411 C14.869,20.646 13.46,24.309 13.292,28.503 C13.281,28.782 13.274,29.062 13.274,29.346 C13.274,29.629 13.282,29.909 13.292,30.187 C13.446,34.034 14.645,37.432 16.448,39.694 L17.948,39.694 C16.659,37.432 15.803,34.034 15.694,30.187 C15.686,29.909 15.681,29.629 15.681,29.346 C15.681,29.062 15.686,28.782 15.694,28.503 C15.813,24.309 16.82,20.646 18.307,18.411 Z" id="Path"></path>
            <path d="M25.445,39.693 L26.944,39.693 C28.748,37.431 29.946,34.033 30.1,30.186 C30.112,29.908 30.119,29.628 30.119,29.345 C30.119,29.061 30.111,28.781 30.1,28.502 C29.933,24.308 28.524,20.645 26.442,18.41 L25.086,18.41 C26.573,20.645 27.579,24.308 27.699,28.502 C27.707,28.781 27.712,29.061 27.712,29.345 C27.712,29.628 27.707,29.908 27.699,30.186 C27.589,34.033 26.733,37.431 25.445,39.693 Z" id="Path"></path>
            <path d="M22.446,39.693 L23.945,39.693 C24.718,37.431 25.231,34.033 25.297,30.186 C25.301,29.908 25.305,29.628 25.305,29.345 C25.305,29.061 25.301,28.781 25.297,28.502 C25.225,24.308 24.621,20.645 23.73,18.41 L22.374,18.41 C22.672,20.645 22.873,24.308 22.897,28.502 C22.898,28.781 22.899,29.061 22.899,29.345 C22.899,29.628 22.898,29.908 22.897,30.186 C22.875,34.033 22.704,37.431 22.446,39.693 Z" id="Path"></path>
            <path d="M21.018,18.411 L19.662,18.411 C18.77,20.646 18.166,24.309 18.094,28.503 C18.09,28.782 18.086,29.062 18.086,29.346 C18.086,29.629 18.09,29.909 18.094,30.187 C18.16,34.034 18.674,37.432 19.447,39.694 L20.946,39.694 C20.688,37.432 20.517,34.034 20.495,30.187 C20.493,29.909 20.492,29.629 20.492,29.346 C20.492,29.062 20.493,28.782 20.495,28.503 C20.52,24.309 20.721,20.646 21.018,18.411 Z" id="Path"></path>
            <polygon id="Path" points="0.4973 0.824 0.4973 43.747 7.632 43.747 7.632 40.925 3.32 40.925 3.32 3.646 40.418 3.646 40.418 40.925 35.891 40.925 35.891 43.747 43.241 43.747 43.241 0.824"></polygon>
        </g>
    </g>
</svg>