<?xml version="1.0" encoding="UTF-8"?>
<svg width="44px" height="44px" viewBox="0 0 44 44" version="1.1" xmlns="http://www.w3.org/2000/svg" xmlns:xlink="http://www.w3.org/1999/xlink">
    <title>Group Copy 2</title>
    <g id="Page-1" stroke="none" stroke-width="1" fill="none" fill-rule="evenodd">
        <g id="Group-Copy-2" fill="#78863D" fill-rule="nonzero">
            <path d="M18.915,26.172 L21.901,28.894 C22.022,29.004 22.208,29.001 22.325,28.889 L25.778,25.571 C26.897,24.495 28.431,23.021 28.366,20.988 C28.308,19.205 27.097,17.712 25.418,17.356 L18.781,17.429 C17.457,17.683 16.337,18.621 15.927,19.819 C15.535,20.963 15.728,22.183 16.501,23.443 C17.146,24.498 18.083,25.414 18.915,26.172 Z" id="Path"></path>
            <path d="M17.639,33.735 L20.362,30.749 C20.472,30.628 20.469,30.442 20.356,30.325 L17.039,26.872 C15.963,25.753 14.49,24.22 12.456,24.284 C10.673,24.342 9.18,25.553 8.824,27.231 L8.8963,33.869 C9.15,35.193 10.088,36.313 11.287,36.723 C11.647,36.847 12.023,36.914 12.405,36.92 C13.214,36.933 14.053,36.675 14.91,36.149 C15.966,35.504 16.883,34.566 17.639,33.735 Z" id="Path"></path>
            <path d="M25.204,35.011 L22.217,32.289 C22.096,32.179 21.911,32.181 21.794,32.294 L18.341,35.612 C17.221,36.688 15.688,38.161 15.753,40.195 C15.81,41.978 17.022,43.471 18.7,43.827 C18.932,43.876 19.169,43.903 19.407,43.906 L25.337,43.754 C26.662,43.5 27.781,42.562 28.192,41.364 C28.583,40.22 28.39,39 27.618,37.74 C26.971,36.684 26.034,35.768 25.204,35.011 Z" id="Path"></path>
            <path d="M35.222,27.313 C34.968,25.988 34.03,24.869 32.832,24.458 C31.687,24.066 30.468,24.26 29.208,25.032 C28.153,25.679 27.236,26.616 26.479,27.446 L23.757,30.433 C23.647,30.554 23.649,30.739 23.762,30.856 L27.08,34.309 C28.123,35.394 29.538,36.868 31.476,36.899 C31.537,36.899 31.6,36.899 31.663,36.897 C33.446,36.839 34.939,35.628 35.295,33.95 L35.222,27.313 Z" id="Path"></path>
            <polygon id="Path" points="0.4973 0.824 0.4973 43.747 7.632 43.747 7.632 40.925 3.32 40.925 3.32 3.646 40.418 3.646 40.418 40.925 35.891 40.925 35.891 43.747 43.241 43.747 43.241 0.824"></polygon>
        </g>
    </g>
</svg>