<?xml version="1.0" encoding="UTF-8"?>
<svg width="44px" height="44px" viewBox="0 0 44 44" version="1.1" xmlns="http://www.w3.org/2000/svg" xmlns:xlink="http://www.w3.org/1999/xlink">
    <title>Group Copy</title>
    <g id="Page-1" stroke="none" stroke-width="1" fill="none" fill-rule="evenodd">
        <g id="Group-Copy" fill="#031464" fill-rule="nonzero">
            <polygon id="Path" points="0.4973 0.824 0.4973 43.747 7.632 43.747 7.632 40.925 3.32 40.925 3.32 3.646 40.418 3.646 40.418 40.925 35.891 40.925 35.891 43.747 43.241 43.747 43.241 0.824"></polygon>
            <path d="M24.508,30.347 C28.192,30.347 31.179,27.36 31.179,23.676 C31.179,19.991 28.192,17.004 24.508,17.004 C20.823,17.004 17.836,19.991 17.836,23.676 C17.836,27.36 20.823,30.347 24.508,30.347 Z" id="Path"></path>
            <path d="M29.25,18.606 C31.512,20.343 32.978,23.066 32.978,26.131 C32.978,31.366 28.719,35.624 23.485,35.624 C18.25,35.624 13.992,31.365 13.992,26.131 C13.992,20.896 18.251,16.638 23.485,16.638 C24.161,16.638 24.82,16.712 25.456,16.847 C24.312,16.523 23.107,16.347 21.861,16.347 C14.563,16.347 8.6255,22.284 8.6255,29.582 C8.6255,36.88 14.563,42.817 21.861,42.817 C29.159,42.817 35.096,36.88 35.096,29.582 C35.096,25.019 32.775,20.987 29.25,18.606 Z" id="Path"></path>
        </g>
    </g>
</svg>