<?xml version="1.0" encoding="UTF-8"?>
<svg width="27px" height="27px" viewBox="6 0 27 27" version="1.1" xmlns="http://www.w3.org/2000/svg">
    <path d="M33,0 L33,26.9112 L28.3572314,26.9112 L28.3572314,25.1415 L31.2170306,25.1415 L31.2170306,1.76966 L7.78297965,1.76966 L7.78297965,25.1415 L10.5068013,25.1415 L10.5068013,26.9112 L6,26.9112 L6,0 L33,0 Z M23.4379,25.209025 C22.1987,25.974625 20.743,26.416125 19.1851,26.416125 C18.4884,26.416125 17.8118,26.327625 17.1663,26.161625 C16.368,25.956425 15.6172,25.632225 14.9319,25.209025 L14.9319,25.209025 Z M23.7958,10.540525 C25.8185,11.941825 27.1881,14.238625 27.3512,16.868025 C27.3622,17.042825 27.3692,17.218125 27.3698,17.396325 C27.3698,17.573325 27.3627,17.749225 27.3518,17.924025 C27.2639,19.339625 26.8263,20.657925 26.1257,21.793025 C25.633,22.591825 25.0093,23.298325 24.2858,23.884125 L24.2858,23.884125 L23.2649,23.884125 C24.6667,22.466325 25.5986,20.335425 25.7181,17.924025 C25.7269,17.749225 25.7329,17.573825 25.7329,17.396325 C25.7329,17.218725 25.7269,17.042825 25.7181,16.868025 C25.5877,14.238625 24.4921,11.941825 22.8742,10.540525 L22.8742,10.540525 Z M17.0883,10.540525 C16.1694,11.941825 15.5468,14.238625 15.4726,16.868025 C15.4677,17.042825 15.4644,17.218725 15.4644,17.396325 C15.4644,17.573825 15.4677,17.749225 15.4726,17.924025 C15.5403,20.335425 16.0696,22.466325 16.8662,23.884125 L16.8662,23.884125 L15.9391,23.884125 C14.8239,22.466325 14.0823,20.335425 13.9874,17.924025 C13.9808,17.749225 13.9759,17.573825 13.9759,17.396325 C13.9759,17.218725 13.9803,17.042825 13.9874,16.868025 C14.0911,14.238625 14.9624,11.941825 16.2496,10.540525 L16.2496,10.540525 Z M18.7657,10.540525 C18.5818,11.941825 18.4574,14.238625 18.4421,16.868025 C18.441,17.042825 18.4405,17.218725 18.4405,17.396325 L18.4408875,17.6611875 L18.4408875,17.6611875 L18.4421,17.924025 C18.4557,20.335425 18.5616,22.466325 18.7209,23.884125 L18.7209,23.884125 L17.7939,23.884125 C17.3159,22.466325 16.9983,20.335425 16.9574,17.924025 C16.9547,17.749225 16.9525,17.573825 16.9525,17.396325 C16.9525,17.218725 16.9547,17.042825 16.9574,16.868025 C17.0021,14.238625 17.3754,11.941825 17.927,10.540525 L17.927,10.540525 Z M22.1196,10.539925 C23.4068,11.941225 24.2782,14.238025 24.3819,16.867425 C24.3884,17.042225 24.3933,17.218125 24.3933,17.395725 C24.3933,17.573225 24.389,17.748625 24.3819,17.923425 C24.2864,20.334825 23.5454,22.465725 22.4301,23.883525 L22.4301,23.883525 L21.5031,23.883525 C22.2997,22.465725 22.829,20.334825 22.8966,17.923425 C22.9015,17.748625 22.9048,17.573225 22.9048,17.395725 C22.9048,17.218125 22.9015,17.042225 22.8966,16.867425 C22.8224,14.238025 22.2004,11.941225 21.281,10.539925 L21.281,10.539925 Z M20.4423,10.539925 C20.994,11.941225 21.3672,14.238025 21.4114,16.867425 C21.4141,17.042225 21.4163,17.218125 21.4163,17.395725 C21.4163,17.573225 21.4141,17.748625 21.4114,17.923425 C21.371,20.334825 21.0534,22.465725 20.5755,23.883525 L20.5755,23.883525 L19.6484,23.883525 C19.8077,22.465725 19.9136,20.334825 19.9272,17.923425 C19.9283,17.748625 19.9289,17.573225 19.9289,17.395725 L19.9284625,17.130525 L19.9284625,17.130525 L19.9272,16.867425 C19.9125,14.238025 19.7881,11.941225 19.6042,10.539925 L19.6042,10.539925 Z M15.4944,10.539925 C13.8766,11.941225 12.7815,14.238025 12.6511,16.867425 C12.6424,17.042225 12.6364,17.218125 12.6364,17.395725 C12.6364,17.573225 12.6424,17.748625 12.6511,17.923425 C12.7706,20.334825 13.7025,22.465725 15.1043,23.882925 L15.1043,23.882925 L14.0839,23.882925 C13.3773,23.311525 12.7668,22.623925 12.2795,21.848325 C11.5582,20.700425 11.1069,19.361725 11.018,17.922825 C11.0076,17.748625 11,17.572725 11,17.395125 C11,17.217525 11.0071,17.042225 11.018,16.867425 C11.1806,14.238025 12.5501,11.941225 14.5728,10.539925 L14.5728,10.539925 Z M19.2206,9.098925 C19.2354,9.098925 19.2501,9.100025 19.2654,9.100025 C20.4789,9.112195 21.6291,9.391565 22.6615,9.883925 C22.6745,9.890025 22.6876,9.895525 22.7002,9.901625 L22.7002,9.901625 L15.6679,9.901025 C16.709,9.398195 17.8718,9.112755 19.0995,9.100025 C19.1159,9.100025 19.1317,9.098925 19.1481,9.098925 L19.1481,9.098925 Z" fill="#EEC851" fill-rule="nonzero"></path>
</svg>