<?xml version="1.0" encoding="UTF-8"?>
<svg width="39px" height="42px" viewBox="0 0 39 42" version="1.1" xmlns="http://www.w3.org/2000/svg" xmlns:xlink="http://www.w3.org/1999/xlink">
    <title>Artboard</title>
    <g id="Artboard" stroke="none" stroke-width="1" fill="none" fill-rule="evenodd">
        <path d="M13.3791767,36.1627907 C13.8225977,36.1627907 14.2220302,36.2426047 14.5778372,36.4015977 C14.9336442,36.5606814 15.228593,36.7905093 15.4646791,37.089993 L14.591714,37.8907628 C14.2774465,37.5064767 13.8963349,37.3147419 13.4480163,37.3147419 C13.1852651,37.3147419 12.9501767,37.373514 12.7447465,37.4904233 C12.539407,37.6073326 12.3800512,37.7724023 12.2666791,37.9856326 C12.1533977,38.1983186 12.0964395,38.4436558 12.0964395,38.7191047 C12.0964395,38.9955512 12.1533977,39.2404349 12.2666791,39.4536651 C12.3800512,39.6668953 12.539407,39.8315116 12.7447465,39.9484209 C12.9501767,40.0652395 13.1852651,40.1244651 13.4480163,40.1244651 C13.8958814,40.1244651 14.2774465,39.9323674 14.591714,39.5485349 L15.4646791,40.3493047 C15.228593,40.6493326 14.9336442,40.8786163 14.5778372,41.0376093 C14.2220302,41.196693 13.8225977,41.2769605 13.3791767,41.2769605 C12.8709977,41.276507 12.4146977,41.1671256 12.0108209,40.949814 C11.6064907,40.7320488 11.2887767,40.4290279 11.0576791,40.0406605 C10.8265814,39.6518395 10.7117581,39.2118651 10.7117581,38.7196488 C10.7117581,38.2284302 10.8265814,37.7879116 11.0576791,37.3990907 C11.2887767,37.0107233 11.6060372,36.7071581 12.0108209,36.489393 C12.4146977,36.2717186 12.8709977,36.1627907 13.3791767,36.1627907 Z M20.8683558,36.1627907 C21.3805256,36.1627907 21.841814,36.2731698 22.2505884,36.4929302 C22.6593628,36.7126907 22.9805233,37.0172535 23.2130721,37.4060744 C23.4467093,37.794986 23.5629837,38.2329651 23.5629837,38.7196488 C23.5629837,39.2073302 23.4467093,39.6448558 23.2130721,40.0331326 C22.9799791,40.4220442 22.6593628,40.726607 22.2505884,40.9462767 C21.841814,41.1660372 21.3805256,41.2764163 20.8683558,41.2764163 C20.3556419,41.2764163 19.8948977,41.1660372 19.4861233,40.9462767 C19.0773488,40.726607 18.7561884,40.4220442 18.5230953,40.0331326 C18.2894581,39.6448558 18.1731837,39.2073302 18.1731837,38.7196488 C18.1731837,38.2329651 18.2894581,37.794986 18.5230953,37.4060744 C18.7566419,37.0177977 19.0773488,36.7132349 19.4861233,36.4929302 C19.8948977,36.2727163 20.3556419,36.1627907 20.8683558,36.1627907 Z M36.6853953,36.2611977 L36.6853953,40.075307 L38.9994558,40.075307 L38.9994558,41.1781907 L35.3140465,41.1781907 L35.3140465,36.2611977 L36.6853953,36.2611977 Z M1.12933116,36.2611977 L3.26971465,38.8811814 L3.26971465,36.2611977 L4.61431674,36.2611977 L4.61431674,41.1781907 L3.48498558,41.1781907 L1.34411233,38.5581163 L1.34411233,41.1781907 L0,41.1781907 L0,36.2611977 L1.12933116,36.2611977 Z M8.49374651,36.2611977 L10.6415581,41.1781907 L9.21479302,41.1781907 L8.83373581,40.2228721 L6.78292535,40.2228721 L6.4013693,41.1781907 L5.0023214,41.1781907 L7.14270488,36.2611977 L8.49374651,36.2611977 Z M17.4452442,36.2611977 L17.4452442,41.1781907 L16.0738953,41.1781907 L16.0738953,36.2611977 L17.4452442,36.2611977 Z M32.7777767,36.2611977 L34.9255884,41.1781907 L33.4988233,41.1781907 L33.1178023,40.2228721 L31.0669465,40.2228721 L30.6853814,41.1781907 L29.2859163,41.1781907 L31.4267442,36.2611977 L32.7777767,36.2611977 Z M25.4128535,36.2611977 L27.5536814,38.8811814 L27.5536814,36.2611977 L28.8982744,36.2611977 L28.8982744,41.1781907 L27.7694512,41.1781907 L25.6280791,38.5581163 L25.6280791,41.1781907 L24.2840302,41.1781907 L24.2840302,36.2611977 L25.4128535,36.2611977 Z M20.8683558,37.315286 C20.6233814,37.315286 20.4016256,37.3739674 20.2031791,37.4908767 C20.0042791,37.607786 19.8473721,37.7728558 19.7315512,37.986086 C19.6168186,38.1988628 19.5584093,38.4442 19.5584093,38.7196488 C19.5584093,38.9960953 19.6162744,39.2408884 19.7315512,39.4542093 C19.8473721,39.6674395 20.0042791,39.8319651 20.2031791,39.9488744 C20.4011721,40.0657837 20.6233814,40.1250093 20.8683558,40.1250093 C21.112786,40.1244651 21.3345419,40.0657837 21.5334419,39.9488744 C21.7314349,39.8319651 21.8892488,39.6668953 22.0040721,39.4542093 C22.119893,39.2408884 22.1778488,38.9960953 22.1778488,38.7196488 C22.1778488,38.4436558 22.1204372,38.1988628 22.0040721,37.986086 C21.8892488,37.7728558 21.7314349,37.607786 21.5334419,37.4908767 C21.3349953,37.3739674 21.112786,37.315286 20.8683558,37.315286 Z M7.80832605,37.6238395 L7.18427163,39.1973535 L8.43188163,39.1973535 L7.80832605,37.6238395 Z M32.0919209,37.6238395 L31.4682837,39.1973535 L32.7159209,39.1973535 L32.0919209,37.6238395 Z M10.2237412,29.3697163 C10.7364551,29.3697163 11.1977435,29.4800953 11.6059737,29.6998558 C12.0147481,29.9196163 12.3359086,30.2241791 12.5690016,30.613 C12.8020947,31.0019116 12.9189133,31.4393465 12.9189133,31.9265744 C12.9189133,32.4137116 12.8020947,32.8512372 12.5690016,33.2401488 C12.3354551,33.6289698 12.0147481,33.9335326 11.6059737,34.153293 C11.1977435,34.373507 10.7364551,34.4834326 10.2237412,34.4834326 C9.71106349,34.4834326 9.2503193,34.373507 8.84154488,34.153293 C8.43326023,33.9335326 8.11159186,33.6289698 7.87849884,33.2401488 C7.64540581,32.8517814 7.52861442,32.4137116 7.52861442,31.9265744 C7.52861442,31.4393465 7.64540581,31.0019116 7.87849884,30.613 C8.11208163,30.2247233 8.43326023,29.9201605 8.84154488,29.6998558 C9.2503193,29.4800953 9.71106349,29.3697163 10.2237412,29.3697163 Z M21.7739086,29.4681233 L21.7739086,30.5428 L19.3281551,30.5428 L19.3281551,31.371686 L21.4828598,31.371686 L21.4828598,32.4112628 L19.3281551,32.4112628 L19.3281551,33.3103488 L21.8639714,33.3103488 L21.8639714,34.3851163 L17.9696853,34.3851163 L17.9696853,29.4681233 L21.7739086,29.4681233 Z M24.8426644,29.4681233 C25.2816412,29.4681233 25.6622086,29.5418605 25.9859086,29.6893349 C26.3095179,29.8369 26.558483,30.0475907 26.7346179,30.3215884 C26.9098458,30.5954953 26.9973691,30.9176535 26.9973691,31.2874279 C26.9973691,31.6431442 26.9152877,31.953693 26.7514877,32.2180767 C26.5876877,32.4825512 26.3530528,32.6897047 26.0482179,32.8397186 L27.0939621,34.3851163 L25.6255598,34.3851163 L24.7457086,33.0786163 L23.9969086,33.0786163 L23.9969086,34.3851163 L22.6255598,34.3851163 L22.6255598,29.4681233 L24.8426644,29.4681233 Z M29.1240481,29.4681233 L29.1240481,34.3851163 L27.7526993,34.3851163 L27.7526993,29.4681233 L29.1240481,29.4681233 Z M33.0108063,29.4681233 L35.1586179,34.3851163 L33.7313993,34.3851163 L33.3508319,33.4297977 L31.299976,33.4297977 L30.9185016,34.3851163 L29.5189458,34.3851163 L31.6597737,29.4681233 L33.0108063,29.4681233 Z M4.99972744,29.4681233 L4.99972744,33.2823233 L7.31381512,33.2823233 L7.31381512,34.3851163 L3.62790698,34.3851163 L3.62790698,29.4681233 L4.99972744,29.4681233 Z M17.4569714,29.4681233 L17.4569714,30.5709163 L15.9742458,30.5709163 L15.9742458,34.3851163 L14.6024435,34.3851163 L14.6024435,30.5709163 L13.1128249,30.5709163 L13.1128249,29.4681233 L17.4569714,29.4681233 Z M10.2237412,30.5217581 C9.97876674,30.5217581 9.75758233,30.5804395 9.55863698,30.6973488 C9.3601814,30.8142581 9.20281186,30.9793279 9.08749884,31.1925581 C8.97219488,31.4057884 8.91429349,31.6501279 8.91429349,31.9265744 C8.91429349,32.2030209 8.97169605,32.4473605 9.08749884,32.6605907 C9.2033107,32.8738209 9.3601814,33.0388907 9.55863698,33.1558 C9.75708349,33.2727093 9.97876674,33.3313907 10.2237412,33.3313907 C10.4687156,33.3313907 10.6904714,33.2727093 10.8893714,33.1558 C11.0873644,33.0388907 11.2447249,32.8738209 11.3600016,32.6605907 C11.4753691,32.4473605 11.5332342,32.2030209 11.5332342,31.9265744 C11.5332342,31.6501279 11.4758226,31.4057884 11.3600016,31.1925581 C11.2441807,30.9793279 11.0873644,30.8142581 10.8893714,30.6973488 C10.6904714,30.5804395 10.4687156,30.5217581 10.2237412,30.5217581 Z M32.3249505,30.8308558 L31.701404,32.4042791 L32.9489505,32.4042791 L32.3249505,30.8308558 Z M24.7594947,30.5639326 L23.9969086,30.5639326 L23.9969086,32.0038488 L24.7594947,32.0038488 C25.0406574,32.0038488 25.2534342,31.9416302 25.3964644,31.8177372 C25.5394947,31.6937535 25.61169,31.5167116 25.61169,31.2874279 C25.61169,31.0581442 25.5394947,30.880014 25.3964644,30.7535814 C25.2534342,30.6271488 25.0406574,30.5639326 24.7594947,30.5639326 Z M30.0044505,28 L28.7018505,29.067693 L27.7595923,29.067693 L28.6880644,28 L30.0044505,28 Z M33,0 L33,26.9112 L28.3572314,26.9112 L28.3572314,25.1415 L31.2170306,25.1415 L31.2170306,1.76966 L7.78297965,1.76966 L7.78297965,25.1415 L10.5068013,25.1415 L10.5068013,26.9112 L6,26.9112 L6,0 L33,0 Z M23.4379,25.209025 C22.1987,25.974625 20.743,26.416125 19.1851,26.416125 C18.4884,26.416125 17.8118,26.327625 17.1663,26.161625 C16.368,25.956425 15.6172,25.632225 14.9319,25.209025 L14.9319,25.209025 Z M23.7958,10.540525 C25.8185,11.941825 27.1881,14.238625 27.3512,16.868025 C27.3622,17.042825 27.3692,17.218125 27.3698,17.396325 C27.3698,17.573325 27.3627,17.749225 27.3518,17.924025 C27.2639,19.339625 26.8263,20.657925 26.1257,21.793025 C25.633,22.591825 25.0093,23.298325 24.2858,23.884125 L24.2858,23.884125 L23.2649,23.884125 C24.6667,22.466325 25.5986,20.335425 25.7181,17.924025 C25.7269,17.749225 25.7329,17.573825 25.7329,17.396325 C25.7329,17.218725 25.7269,17.042825 25.7181,16.868025 C25.5877,14.238625 24.4921,11.941825 22.8742,10.540525 L22.8742,10.540525 Z M17.0883,10.540525 C16.1694,11.941825 15.5468,14.238625 15.4726,16.868025 C15.4677,17.042825 15.4644,17.218725 15.4644,17.396325 C15.4644,17.573825 15.4677,17.749225 15.4726,17.924025 C15.5403,20.335425 16.0696,22.466325 16.8662,23.884125 L16.8662,23.884125 L15.9391,23.884125 C14.8239,22.466325 14.0823,20.335425 13.9874,17.924025 C13.9808,17.749225 13.9759,17.573825 13.9759,17.396325 C13.9759,17.218725 13.9803,17.042825 13.9874,16.868025 C14.0911,14.238625 14.9624,11.941825 16.2496,10.540525 L16.2496,10.540525 Z M18.7657,10.540525 C18.5818,11.941825 18.4574,14.238625 18.4421,16.868025 C18.441,17.042825 18.4405,17.218725 18.4405,17.396325 L18.4408875,17.6611875 L18.4408875,17.6611875 L18.4421,17.924025 C18.4557,20.335425 18.5616,22.466325 18.7209,23.884125 L18.7209,23.884125 L17.7939,23.884125 C17.3159,22.466325 16.9983,20.335425 16.9574,17.924025 C16.9547,17.749225 16.9525,17.573825 16.9525,17.396325 C16.9525,17.218725 16.9547,17.042825 16.9574,16.868025 C17.0021,14.238625 17.3754,11.941825 17.927,10.540525 L17.927,10.540525 Z M22.1196,10.539925 C23.4068,11.941225 24.2782,14.238025 24.3819,16.867425 C24.3884,17.042225 24.3933,17.218125 24.3933,17.395725 C24.3933,17.573225 24.389,17.748625 24.3819,17.923425 C24.2864,20.334825 23.5454,22.465725 22.4301,23.883525 L22.4301,23.883525 L21.5031,23.883525 C22.2997,22.465725 22.829,20.334825 22.8966,17.923425 C22.9015,17.748625 22.9048,17.573225 22.9048,17.395725 C22.9048,17.218125 22.9015,17.042225 22.8966,16.867425 C22.8224,14.238025 22.2004,11.941225 21.281,10.539925 L21.281,10.539925 Z M20.4423,10.539925 C20.994,11.941225 21.3672,14.238025 21.4114,16.867425 C21.4141,17.042225 21.4163,17.218125 21.4163,17.395725 C21.4163,17.573225 21.4141,17.748625 21.4114,17.923425 C21.371,20.334825 21.0534,22.465725 20.5755,23.883525 L20.5755,23.883525 L19.6484,23.883525 C19.8077,22.465725 19.9136,20.334825 19.9272,17.923425 C19.9283,17.748625 19.9289,17.573225 19.9289,17.395725 L19.9284625,17.130525 L19.9284625,17.130525 L19.9272,16.867425 C19.9125,14.238025 19.7881,11.941225 19.6042,10.539925 L19.6042,10.539925 Z M15.4944,10.539925 C13.8766,11.941225 12.7815,14.238025 12.6511,16.867425 C12.6424,17.042225 12.6364,17.218125 12.6364,17.395725 C12.6364,17.573225 12.6424,17.748625 12.6511,17.923425 C12.7706,20.334825 13.7025,22.465725 15.1043,23.882925 L15.1043,23.882925 L14.0839,23.882925 C13.3773,23.311525 12.7668,22.623925 12.2795,21.848325 C11.5582,20.700425 11.1069,19.361725 11.018,17.922825 C11.0076,17.748625 11,17.572725 11,17.395125 C11,17.217525 11.0071,17.042225 11.018,16.867425 C11.1806,14.238025 12.5501,11.941225 14.5728,10.539925 L14.5728,10.539925 Z M19.2206,9.098925 C19.2354,9.098925 19.2501,9.100025 19.2654,9.100025 C20.4789,9.112195 21.6291,9.391565 22.6615,9.883925 C22.6745,9.890025 22.6876,9.895525 22.7002,9.901625 L22.7002,9.901625 L15.6679,9.901025 C16.709,9.398195 17.8718,9.112755 19.0995,9.100025 C19.1159,9.100025 19.1317,9.098925 19.1481,9.098925 L19.1481,9.098925 Z" id="Combined-Shape" fill="#FFFFFF" fill-rule="nonzero"></path>
    </g>
</svg>