<svg width="44" height="34" viewBox="0 0 44 34" fill="none" xmlns="http://www.w3.org/2000/svg">
<path d="M27.9489 24.1845H16.0508V2.89441H27.9489V24.1845Z" fill="#6C6CB0"/>
<path d="M16.8063 13.54C16.8063 9.22117 18.8369 5.37453 21.9994 2.89495C19.6871 1.08228 16.7681 0 13.5965 0C6.08689 0 0 6.06199 0 13.54C0 21.018 6.08689 27.08 13.5965 27.08C16.7687 27.08 19.6871 25.9978 22 24.1851C18.8369 21.7055 16.8063 17.8589 16.8063 13.54Z" fill="#D42316"/>
<path d="M44.0001 13.54C44.0001 21.018 37.9132 27.08 30.4036 27.08C27.2314 27.08 24.3131 25.9978 21.9995 24.1851C25.1626 21.7061 27.1938 17.8589 27.1938 13.54C27.1938 9.22117 25.1632 5.37453 21.9995 2.89495C24.3131 1.08228 27.232 0 30.4036 0C37.9132 0 44.0001 6.06199 44.0001 13.54Z" fill="#2197D5"/>
<path d="M31.9744 30.1999C32.1329 30.1999 32.36 30.2301 32.5337 30.2978L32.2914 31.0349C32.1256 30.9672 31.9592 30.9448 31.8001 30.9448C31.2864 30.9448 31.0295 31.2755 31.0295 31.8693V33.8851H30.2438V30.2906H31.0217V30.7271C31.2263 30.4109 31.5214 30.1999 31.9744 30.1999ZM29.0712 31.0052H27.7875V32.6299C27.7875 32.9902 27.9157 33.2315 28.3091 33.2315C28.5132 33.2315 28.77 33.1638 29.0032 33.0283L29.2297 33.697C28.9807 33.87 28.5885 33.9758 28.2484 33.9758C27.3194 33.9758 26.9951 33.4788 26.9951 32.6438V31.0052H26.2622V30.2906H26.9951V29.1998H27.7881V30.2906H29.0718V31.0052H29.0712ZM19.0179 31.7719C19.1017 31.2531 19.4181 30.8988 19.9773 30.8988C20.4831 30.8988 20.808 31.2144 20.8912 31.7719H19.0179ZM21.7073 32.0881C21.6994 30.9672 21.0048 30.2005 19.9919 30.2005C18.9347 30.2005 18.1945 30.9678 18.1945 32.0881C18.1945 33.2303 18.9645 33.9752 20.0453 33.9752C20.5894 33.9752 21.0867 33.8403 21.5252 33.4715L21.1402 32.8917C20.8384 33.1329 20.4528 33.2678 20.0909 33.2678C19.5851 33.2678 19.1242 33.0344 19.0112 32.388H21.6921C21.6994 32.2901 21.7073 32.1927 21.7073 32.0881ZM25.1582 31.2084C24.9396 31.0724 24.4945 30.8994 24.0336 30.8994C23.6031 30.8994 23.3462 31.0579 23.3462 31.3215C23.3462 31.5615 23.6177 31.6298 23.9577 31.6746L24.3275 31.7272C25.1133 31.8408 25.5888 32.1716 25.5888 32.8034C25.5888 33.4878 24.9846 33.977 23.9425 33.977C23.3529 33.977 22.8088 33.8264 22.3783 33.5102L22.7481 32.9008C23.0129 33.1039 23.4058 33.2768 23.9498 33.2768C24.486 33.2768 24.7726 33.119 24.7726 32.8403C24.7726 32.6377 24.5686 32.5247 24.1381 32.4648L23.7683 32.4122C22.96 32.2985 22.5216 31.9376 22.5216 31.3517C22.5216 30.637 23.1112 30.2011 24.0251 30.2011C24.599 30.2011 25.1206 30.3293 25.4977 30.5772L25.1582 31.2084ZM34.8454 30.943C34.6839 30.943 34.5345 30.9714 34.3948 31.027C34.2564 31.0839 34.1361 31.1631 34.0353 31.2646C33.9339 31.3662 33.8544 31.4883 33.7967 31.6304C33.739 31.7725 33.7105 31.9291 33.7105 32.0996C33.7105 32.2707 33.739 32.4267 33.7967 32.5688C33.8544 32.7109 33.9339 32.833 34.0353 32.9346C34.1368 33.0362 34.257 33.1154 34.3948 33.1722C34.5339 33.2291 34.6839 33.2569 34.8454 33.2569C35.0069 33.2569 35.1575 33.2291 35.296 33.1722C35.435 33.1154 35.5559 33.0362 35.6573 32.9346C35.7599 32.833 35.8394 32.7109 35.8983 32.5688C35.956 32.4267 35.9846 32.2707 35.9846 32.0996C35.9846 31.9291 35.956 31.7725 35.8983 31.6304C35.8394 31.4883 35.7599 31.3662 35.6573 31.2646C35.5559 31.1631 35.435 31.0839 35.296 31.027C35.1575 30.9714 35.0069 30.943 34.8454 30.943ZM34.8454 30.1999C35.1253 30.1999 35.3846 30.2483 35.6233 30.3456C35.8619 30.4423 36.0684 30.5754 36.242 30.7453C36.4169 30.9146 36.5523 31.1153 36.6513 31.3463C36.7497 31.5778 36.7989 31.8294 36.7989 32.1002C36.7989 32.3717 36.7497 32.6226 36.6513 32.8542C36.5529 33.0852 36.4169 33.2865 36.242 33.4558C36.0684 33.6251 35.8619 33.7581 35.6233 33.8555C35.3846 33.9516 35.1253 34 34.8454 34C34.5655 34 34.3062 33.9516 34.0675 33.8555C33.8289 33.7581 33.6242 33.6257 33.4512 33.4558C33.2781 33.2865 33.1427 33.0846 33.0437 32.8542C32.9454 32.6226 32.8962 32.3711 32.8962 32.1002C32.8962 31.8294 32.9454 31.5778 33.0437 31.3463C33.1421 31.1153 33.2781 30.9152 33.4512 30.7453C33.6242 30.576 33.8289 30.4423 34.0675 30.3456C34.3062 30.2483 34.5655 30.1999 34.8454 30.1999ZM14.429 32.0881C14.429 31.4563 14.845 30.9369 15.5245 30.9369C16.1736 30.9369 16.612 31.4339 16.612 32.0881C16.612 32.7423 16.1736 33.2381 15.5245 33.2381C14.8444 33.2381 14.429 32.72 14.429 32.0881ZM17.3517 32.0881V30.2906H16.5665V30.7271C16.3169 30.4036 15.9398 30.2005 15.4261 30.2005C14.4139 30.2005 13.6208 30.9901 13.6208 32.0881C13.6208 33.1855 14.4139 33.9758 15.4261 33.9758C15.9398 33.9758 16.3169 33.7726 16.5665 33.4492V33.8857H17.3517V32.0881ZM12.9262 33.8851V31.6286C12.9262 30.7791 12.3821 30.2071 11.5064 30.1999C11.0456 30.192 10.5695 30.3353 10.2373 30.8396C9.98836 30.4411 9.59488 30.1999 9.04351 30.1999C8.65853 30.1999 8.28083 30.313 7.98632 30.7338V30.2906H7.20117V33.8851H7.99422V31.8922C7.99422 31.2683 8.34155 30.9369 8.87774 30.9369C9.39935 30.9369 9.6635 31.2755 9.6635 31.885V33.8857H10.4565V31.8928C10.4565 31.2689 10.8197 30.9375 11.3401 30.9375C11.8769 30.9375 12.1337 31.2761 12.1337 31.8856V33.8863H12.9262V33.8851Z" fill="#100F0E"/>
</svg>
