<svg width="43" height="34" viewBox="0 0 43 34" fill="none" xmlns="http://www.w3.org/2000/svg">
<path d="M7.82467 33.9245V31.6684C7.82467 30.8032 7.30741 30.24 6.42165 30.24C5.97908 30.24 5.49917 30.3896 5.1674 30.8787C4.90846 30.4651 4.53934 30.24 3.98535 30.24C3.61623 30.24 3.24712 30.3516 2.95207 30.7658V30.3142H2.17773V33.9251H2.95269V31.9316C2.95269 31.2929 3.28384 30.9909 3.8011 30.9909C4.31837 30.9909 4.57606 31.3303 4.57606 31.9316V33.9251H5.35102V31.9316C5.35102 31.2929 5.72014 30.9909 6.20006 30.9909C6.71732 30.9909 6.97502 31.3303 6.97502 31.9316V33.9251H7.82467V33.9245ZM19.3034 30.3135H18.0492V29.2232H17.2742V30.3135H16.5733V31.029H17.2742V32.6826C17.2742 33.5103 17.606 33.9993 18.4923 33.9993C18.8235 33.9993 19.1932 33.8858 19.4522 33.7367L19.2306 33.0587C19.0084 33.2097 18.7507 33.2471 18.5658 33.2471C18.1967 33.2471 18.0492 33.0206 18.0492 32.6445V31.0284H19.3034V30.3135ZM25.8741 30.24C25.4309 30.24 25.1352 30.4651 24.951 30.7658V30.3142H24.176V33.9251H24.9503V31.8942C24.9503 31.2929 25.2087 30.9548 25.6892 30.9548C25.8367 30.9548 26.021 30.9909 26.1685 31.0303L26.3901 30.2767C26.2426 30.24 26.0216 30.24 25.8741 30.24ZM15.9446 30.6142C15.5755 30.3516 15.0583 30.2393 14.5055 30.2393C13.6191 30.2393 13.0284 30.6897 13.0284 31.4051C13.0284 32.0064 13.4716 32.3445 14.2466 32.458L14.6157 32.4961C15.0221 32.5716 15.2431 32.6832 15.2431 32.8722C15.2431 33.1348 14.9481 33.3238 14.4308 33.3238C13.9136 33.3238 13.5077 33.1348 13.2494 32.9464L12.8803 33.549C13.2861 33.8497 13.8401 34.0006 14.3935 34.0006C15.428 34.0006 16.0175 33.5116 16.0175 32.8348C16.0175 32.1961 15.5375 31.8561 14.7993 31.7445L14.4302 31.7064C14.0984 31.669 13.8395 31.5929 13.8395 31.3683C13.8395 31.1038 14.0984 30.9548 14.5043 30.9548C14.9475 30.9548 15.39 31.1419 15.611 31.2554L15.9446 30.6142ZM36.5411 30.24C36.0979 30.24 35.8023 30.4651 35.618 30.7658V30.3142H34.8431V33.9251H35.618V31.8942C35.618 31.2929 35.877 30.9548 36.3563 30.9548C36.5038 30.9548 36.6887 30.9909 36.8362 31.0303L37.0578 30.2767C36.9103 30.24 36.6887 30.24 36.5411 30.24ZM26.649 32.12C26.649 33.2103 27.3873 34 28.5313 34C29.048 34 29.4177 33.8864 29.7868 33.5864L29.4177 32.9464C29.1221 33.1729 28.827 33.2858 28.4952 33.2858C27.8678 33.2858 27.4246 32.8342 27.4246 32.12C27.4246 31.4419 27.8678 30.9903 28.4952 30.9542C28.827 30.9542 29.1221 31.0658 29.4177 31.2922L29.7868 30.6522C29.4177 30.3516 29.048 30.24 28.5313 30.24C27.3873 30.24 26.649 31.0296 26.649 32.12ZM33.8092 32.12V30.3142H33.0342V30.7658C32.7759 30.4277 32.4068 30.24 31.9275 30.24C30.9309 30.24 30.156 31.0296 30.156 32.12C30.156 33.2103 30.9309 34 31.9275 34C32.4441 34 32.8132 33.811 33.0342 33.4729V33.9245H33.8092V32.12ZM30.9676 32.12C30.9676 31.48 31.3729 30.9542 32.0377 30.9542C32.6651 30.9542 33.1083 31.4419 33.1083 32.12C33.1083 32.7587 32.6651 33.2858 32.0377 33.2858C31.3729 33.2477 30.9676 32.7587 30.9676 32.12ZM21.7024 30.24C20.6691 30.24 19.9315 30.9909 19.9315 32.12C19.9315 33.2477 20.6697 34 21.7403 34C22.257 34 22.7742 33.849 23.1795 33.5109L22.8103 32.9464C22.5153 33.1729 22.1462 33.3238 21.7764 33.3238C21.2978 33.3238 20.8172 33.0974 20.7064 32.4587H23.3276V32.1568C23.3643 30.9903 22.6995 30.24 21.7024 30.24ZM21.7024 30.9161C22.1823 30.9161 22.5153 31.2167 22.5887 31.78H20.7438C20.8172 31.2922 21.149 30.9161 21.7024 30.9161ZM40.9332 32.12V28.8851H40.1582V30.7651C39.9005 30.4271 39.5308 30.2393 39.0509 30.2393C38.0543 30.2393 37.2794 31.029 37.2794 32.1193C37.2794 33.2097 38.0543 33.9993 39.0509 33.9993C39.5675 33.9993 39.9366 33.8103 40.1582 33.4723V33.9239H40.9332V32.12ZM38.0911 32.12C38.0911 31.48 38.4969 30.9542 39.1611 30.9542C39.7885 30.9542 40.2311 31.4419 40.2311 32.12C40.2311 32.7587 39.7885 33.2858 39.1611 33.2858C38.4975 33.2477 38.0911 32.7587 38.0911 32.12ZM12.18 32.12V30.3142H11.4044V30.7658C11.1467 30.4277 10.7776 30.24 10.2977 30.24C9.30052 30.24 8.52556 31.0296 8.52556 32.12C8.52556 33.2103 9.30052 34 10.2977 34C10.8137 34 11.1828 33.811 11.4044 33.4729V33.9245H12.18V32.12ZM9.30052 32.12C9.30052 31.48 9.70636 30.9542 10.3711 30.9542C10.9986 30.9542 11.4418 31.4419 11.4418 32.12C11.4418 32.7587 10.9986 33.2858 10.3711 33.2858C9.70698 33.2477 9.30052 32.7587 9.30052 32.12Z" fill="#010202"/>
<path d="M27.3128 2.89551H15.6865V24.1832H27.3128V2.89551Z" fill="#EB621D"/>
<path d="M16.4248 13.54C16.4248 9.2142 18.4179 5.37807 21.481 2.89549C19.2302 1.09033 16.3881 0 13.2876 0C5.9426 0 0 6.05485 0 13.54C0 21.0251 5.9426 27.0794 13.2876 27.0794C16.3881 27.0794 19.2302 25.989 21.4816 24.1839C18.4179 21.7387 16.4248 17.8658 16.4248 13.54Z" fill="#E41222"/>
<path d="M43.0002 13.54C43.0002 21.0251 37.0582 27.0794 29.7126 27.0794C26.6121 27.0794 23.7706 25.989 21.5186 24.1839C24.619 21.7019 26.5754 17.8658 26.5754 13.5406C26.5754 9.21483 24.5823 5.3787 21.5186 2.89613C23.7706 1.09033 26.6121 0 29.7126 0C37.0582 0 43.0002 6.0929 43.0002 13.54Z" fill="#F59E1F"/>
</svg>
