<svg width="48" height="31" viewBox="0 0 48 31" fill="none" xmlns="http://www.w3.org/2000/svg">
<path d="M48 0H0V31H48V0Z" fill="white"/>
<path d="M47.1996 25.9622H0.800781V30.1911H47.1996V25.9622Z" fill="#F7B705"/>
<path d="M47.1996 0.812988H0.800781V5.0432H47.1996V0.812988Z" fill="#292E67"/>
<path d="M19.3704 9.70122L14.5772 21.3257H11.4513L9.09398 12.0517C8.9513 11.4801 8.82614 11.2711 8.38969 11.0284C7.67891 10.6335 6.50445 10.2696 5.47266 10.0388L5.54464 9.70122H10.5745C11.2166 9.70122 11.795 10.137 11.9429 10.8854L13.1855 17.617L16.262 9.70122H19.3704ZM31.6235 17.5333C31.639 14.4648 27.4554 14.2954 27.4853 12.9213C27.4892 12.5066 27.8828 12.0623 28.7317 11.9515C29.1591 11.8941 30.3303 11.8506 31.6552 12.4691L32.1702 10.0032C31.4574 9.74275 30.5463 9.49023 29.4068 9.49023C26.4801 9.49023 24.4262 11.0706 24.41 13.3328C24.3841 15.0055 25.8718 15.9384 26.9943 16.4988C28.15 17.0652 28.5333 17.4337 28.5307 17.9394C28.5164 18.7201 27.6065 19.0649 26.7609 19.0807C25.2725 19.1045 24.4113 18.6693 23.7206 18.343L23.1875 20.8958C23.8724 21.2163 25.1551 21.4965 26.4775 21.5103C29.5865 21.5097 31.6176 19.9484 31.6235 17.5333ZM39.3454 21.3257H42.0802L39.693 9.70122H37.167C36.6008 9.70122 36.1209 10.0368 35.9076 10.5564L31.4724 21.3257H34.5788L35.1948 19.5917H38.9887L39.3454 21.3257ZM36.0457 17.2069L37.6041 12.8429L38.501 17.2069H36.0457ZM23.602 9.70122L21.1551 21.3257H18.1953L20.6421 9.70122H23.602Z" fill="#292E67"/>
</svg>
